%
M48
M72
T01C0.0200
T02C0.0276
T03C0.0315
T04C0.0320
T05C0.0331
T06C0.0354
T07C0.0394
T08C0.0400
T09C0.1300
T10C0.1417
%
T01
X15480Y15072
X14080Y15872
X17880Y19672
X21780Y18772
X23580Y17972
X27980Y20072
X31580Y17472
X33880Y17872
X34580Y17872
X34280Y17072
X34880Y17072
X38380Y17072
X35680Y19572
X40680Y20072
X41880Y20072
X44580Y17972
X47680Y17672
X50780Y17772
X49780Y20072
X46580Y20072
X42780Y22772
X40580Y23672
X36880Y23672
X40380Y26572
X37980Y28172
X41780Y28672
X44680Y28672
X47180Y27072
X45180Y26172
X45880Y23672
X51180Y26172
X52280Y28172
X52780Y28472
X51780Y31172
X60880Y31072
X62780Y28572
X56680Y24672
X52780Y22372
X51680Y23672
X62880Y21972
X52580Y15072
X50680Y13872
X49180Y14672
X47280Y14272
X47180Y15172
X38080Y12172
X35680Y12872
X34080Y13372
X34680Y14272
X32480Y14672
X23080Y21772
X23980Y24472
X19680Y26572
X20780Y28172
X24480Y30272
X24480Y30972
X25380Y33172
X34280Y29572
X31680Y28172
X30180Y26572
X25680Y27472
X17480Y23672
X10430Y26572
X8680Y28472
X9880Y29672
X12080Y30272
X13180Y29672
X13680Y29172
X10880Y31672
X8730Y33172
X4880Y33072
X3680Y29272
X4230Y26322
X10130Y23722
X7280Y20772
X7280Y19772
X13980Y32772
X14480Y33272
X36680Y34572
X37020Y34112
X38080Y33672
X40820Y31592
X42280Y30772
T02
X8680Y8872
X7680Y8872
X5680Y8872
X4680Y8872
T03
X10070Y4372
X8180Y3191
T04
X34180Y15872
X35180Y15872
X36180Y15872
X37180Y15872
X38180Y15872
X39180Y15872
X40180Y15872
X41180Y15872
X44680Y15872
X45680Y15872
X46680Y15872
X47680Y15872
X48680Y15872
X49680Y15872
X50680Y15872
X51680Y15872
X55180Y15872
X56180Y15872
X57180Y15872
X58180Y15872
X59180Y15872
X60180Y15872
X61180Y15872
X62180Y15872
X62180Y18872
X61180Y18872
X60180Y18872
X59180Y18872
X58180Y18872
X57180Y18872
X56180Y18872
X55180Y18872
X51680Y18872
X50680Y18872
X49680Y18872
X48680Y18872
X47680Y18872
X46680Y18872
X45680Y18872
X44680Y18872
X41180Y18872
X40180Y18872
X39180Y18872
X38180Y18872
X37180Y18872
X36180Y18872
X35180Y18872
X34180Y18872
X34180Y22372
X35180Y22372
X36180Y22372
X37180Y22372
X38180Y22372
X39180Y22372
X40180Y22372
X41180Y22372
X44680Y22372
X45680Y22372
X46680Y22372
X47680Y22372
X48680Y22372
X49680Y22372
X50680Y22372
X51680Y22372
X55180Y22372
X56180Y22372
X57180Y22372
X58180Y22372
X59180Y22372
X60180Y22372
X61180Y22372
X62180Y22372
X62180Y25372
X61180Y25372
X60180Y25372
X59180Y25372
X58180Y25372
X57180Y25372
X56180Y25372
X55180Y25372
X51680Y25372
X50680Y25372
X49680Y25372
X48680Y25372
X47680Y25372
X46680Y25372
X45680Y25372
X44680Y25372
X41180Y25372
X40180Y25372
X39180Y25372
X38180Y25372
X37180Y25372
X36180Y25372
X35180Y25372
X34180Y25372
X30680Y25372
X29680Y25372
X28680Y25372
X27680Y25372
X26680Y25372
X25680Y25372
X24680Y25372
X23680Y25372
X20180Y25372
X19180Y25372
X18180Y25372
X17180Y25372
X16180Y25372
X15180Y25372
X14180Y25372
X13180Y25372
X9680Y25372
X8680Y25372
X7680Y25372
X6680Y25372
X5680Y25372
X4680Y25372
X3680Y25372
X2680Y25372
X2680Y22372
X3680Y22372
X4680Y22372
X5680Y22372
X6680Y22372
X7680Y22372
X8680Y22372
X9680Y22372
X13180Y22372
X14180Y22372
X15180Y22372
X16180Y22372
X17180Y22372
X18180Y22372
X19180Y22372
X20180Y22372
X23680Y22372
X24680Y22372
X25680Y22372
X26680Y22372
X27680Y22372
X28680Y22372
X29680Y22372
X30680Y22372
T05
X27680Y28684
X26663Y28935
X25880Y29629
X25508Y30608
X25635Y31648
X26229Y32509
X27156Y32996
X28204Y32996
X29131Y32509
X29725Y31648
X29852Y30608
X29480Y29629
X28697Y28935
X35008Y30608
X35380Y29629
X36163Y28935
X37180Y28684
X38197Y28935
X38980Y29629
X39352Y30608
X39225Y31648
X38631Y32509
X37704Y32996
X36656Y32996
X35729Y32509
X35135Y31648
X46008Y30608
X46380Y29629
X47163Y28935
X48180Y28684
X49197Y28935
X49980Y29629
X50352Y30608
X50225Y31648
X49631Y32509
X48704Y32996
X47656Y32996
X46729Y32509
X46135Y31648
X55508Y30608
X55880Y29629
X56663Y28935
X57680Y28684
X58697Y28935
X59480Y29629
X59852Y30608
X59725Y31648
X59131Y32509
X58204Y32996
X57156Y32996
X56229Y32509
X55635Y31648
X18852Y30608
X18480Y29629
X17697Y28935
X16680Y28684
X15663Y28935
X14880Y29629
X14508Y30608
X14635Y31648
X15229Y32509
X16156Y32996
X17204Y32996
X18131Y32509
X18725Y31648
X9352Y30608
X8980Y29629
X8197Y28935
X7180Y28684
X6163Y28935
X5380Y29629
X5008Y30608
X5135Y31648
X5729Y32509
X6656Y32996
X7704Y32996
X8631Y32509
X9225Y31648
T06
X11680Y24872
X11680Y20872
X22180Y20872
X22180Y24872
X32680Y24872
X32680Y20872
X43180Y20872
X43180Y24872
X53680Y24872
X53680Y20872
X63680Y20872
X63680Y24872
X40180Y12372
X36180Y12372
X44680Y10372
X44680Y8872
X48680Y8872
X48680Y10372
T07
X8180Y5553
T08
X14180Y6372
X7680Y11872
X6680Y11872
X5680Y11872
X14180Y17372
X30180Y17372
X37180Y13872
X38180Y13872
X39180Y13872
X44180Y13372
X45180Y13372
X46180Y13372
X47180Y13372
X48180Y13372
X49180Y13372
X50180Y13372
X51180Y13372
X52180Y13372
X53180Y13372
X54180Y13372
X55180Y13372
X59180Y11372
X59180Y10372
X59180Y9372
X61290Y9652
X63070Y9652
X63070Y11092
X61290Y11092
X61290Y13652
X63070Y13652
X55180Y7372
X54180Y7372
X53180Y7372
X52180Y7372
X51180Y7372
X50180Y7372
X49180Y7372
X48180Y7372
X47180Y7372
X46180Y7372
X45180Y7372
X44180Y7372
X40680Y9872
X39680Y9872
X38680Y9872
X37680Y9872
X36680Y9872
X30180Y6372
X44680Y3372
X45680Y3372
X46680Y3372
X50680Y8622
X51680Y8622
X61290Y7092
X63070Y7092
T09
X6680Y17772
T10
X2180Y3872
X2180Y33872
X62680Y33872
X62680Y3872
M30
