G75*
%MOIN*%
%OFA0B0*%
%FSLAX24Y24*%
%IPPOS*%
%LPD*%
%AMOC8*
5,1,8,0,0,1.08239X$1,22.5*
%
%ADD10C,0.0000*%
D10*
X000180Y001872D02*
X000180Y035872D01*
X064680Y035872D01*
X064672Y001872D01*
X000180Y001872D01*
X006030Y017772D02*
X006032Y017822D01*
X006038Y017872D01*
X006048Y017922D01*
X006061Y017970D01*
X006078Y018018D01*
X006099Y018064D01*
X006123Y018108D01*
X006151Y018150D01*
X006182Y018190D01*
X006216Y018227D01*
X006253Y018262D01*
X006292Y018293D01*
X006333Y018322D01*
X006377Y018347D01*
X006423Y018369D01*
X006470Y018387D01*
X006518Y018401D01*
X006567Y018412D01*
X006617Y018419D01*
X006667Y018422D01*
X006718Y018421D01*
X006768Y018416D01*
X006818Y018407D01*
X006866Y018395D01*
X006914Y018378D01*
X006960Y018358D01*
X007005Y018335D01*
X007048Y018308D01*
X007088Y018278D01*
X007126Y018245D01*
X007161Y018209D01*
X007194Y018170D01*
X007223Y018129D01*
X007249Y018086D01*
X007272Y018041D01*
X007291Y017994D01*
X007306Y017946D01*
X007318Y017897D01*
X007326Y017847D01*
X007330Y017797D01*
X007330Y017747D01*
X007326Y017697D01*
X007318Y017647D01*
X007306Y017598D01*
X007291Y017550D01*
X007272Y017503D01*
X007249Y017458D01*
X007223Y017415D01*
X007194Y017374D01*
X007161Y017335D01*
X007126Y017299D01*
X007088Y017266D01*
X007048Y017236D01*
X007005Y017209D01*
X006960Y017186D01*
X006914Y017166D01*
X006866Y017149D01*
X006818Y017137D01*
X006768Y017128D01*
X006718Y017123D01*
X006667Y017122D01*
X006617Y017125D01*
X006567Y017132D01*
X006518Y017143D01*
X006470Y017157D01*
X006423Y017175D01*
X006377Y017197D01*
X006333Y017222D01*
X006292Y017251D01*
X006253Y017282D01*
X006216Y017317D01*
X006182Y017354D01*
X006151Y017394D01*
X006123Y017436D01*
X006099Y017480D01*
X006078Y017526D01*
X006061Y017574D01*
X006048Y017622D01*
X006038Y017672D01*
X006032Y017722D01*
X006030Y017772D01*
M02*
