G75*
%MOIN*%
%OFA0B0*%
%FSLAX24Y24*%
%IPPOS*%
%LPD*%
%AMOC8*
5,1,8,0,0,1.08239X$1,22.5*
%
%ADD10C,0.0820*%
%ADD11C,0.0640*%
%ADD12C,0.0720*%
%ADD13C,0.1380*%
%ADD14R,0.0730X0.0730*%
%ADD15C,0.0730*%
%ADD16R,0.0820X0.0820*%
%ADD17C,0.0940*%
%ADD18C,0.0651*%
%ADD19C,0.2380*%
D10*
X014180Y006372D03*
X030180Y006372D03*
X036680Y009872D03*
X037680Y009872D03*
X038680Y009872D03*
X039680Y009872D03*
X040680Y009872D03*
X044680Y010372D03*
X044680Y008872D03*
X044180Y007372D03*
X045180Y007372D03*
X046180Y007372D03*
X047180Y007372D03*
X048180Y007372D03*
X049180Y007372D03*
X050180Y007372D03*
X051180Y007372D03*
X052180Y007372D03*
X053180Y007372D03*
X054180Y007372D03*
X055180Y007372D03*
X051680Y008622D03*
X050680Y008622D03*
X048680Y008872D03*
X048680Y010372D03*
X048180Y013372D03*
X049180Y013372D03*
X050180Y013372D03*
X051180Y013372D03*
X052180Y013372D03*
X053180Y013372D03*
X054180Y013372D03*
X055180Y013372D03*
X059180Y011372D03*
X059180Y010372D03*
X059180Y009372D03*
X061290Y009652D03*
X063070Y009652D03*
X063070Y011092D03*
X061290Y011092D03*
X061290Y013652D03*
X063070Y013652D03*
X063070Y007092D03*
X061290Y007092D03*
X047180Y013372D03*
X046180Y013372D03*
X045180Y013372D03*
X044180Y013372D03*
X040180Y012372D03*
X039180Y013872D03*
X038180Y013872D03*
X037180Y013872D03*
X036180Y012372D03*
X032680Y020872D03*
X032680Y024872D03*
X022180Y024872D03*
X022180Y020872D03*
X014180Y017372D03*
X011680Y020872D03*
X011680Y024872D03*
X043180Y024872D03*
X043180Y020872D03*
X053680Y020872D03*
X053680Y024872D03*
X063680Y024872D03*
X063680Y020872D03*
D11*
X062180Y022092D02*
X062180Y022652D01*
X061180Y022652D02*
X061180Y022092D01*
X060180Y022092D02*
X060180Y022652D01*
X059180Y022652D02*
X059180Y022092D01*
X058180Y022092D02*
X058180Y022652D01*
X057180Y022652D02*
X057180Y022092D01*
X056180Y022092D02*
X056180Y022652D01*
X055180Y022652D02*
X055180Y022092D01*
X051680Y022092D02*
X051680Y022652D01*
X050680Y022652D02*
X050680Y022092D01*
X049680Y022092D02*
X049680Y022652D01*
X048680Y022652D02*
X048680Y022092D01*
X047680Y022092D02*
X047680Y022652D01*
X046680Y022652D02*
X046680Y022092D01*
X045680Y022092D02*
X045680Y022652D01*
X044680Y022652D02*
X044680Y022092D01*
X041180Y022092D02*
X041180Y022652D01*
X040180Y022652D02*
X040180Y022092D01*
X039180Y022092D02*
X039180Y022652D01*
X038180Y022652D02*
X038180Y022092D01*
X037180Y022092D02*
X037180Y022652D01*
X036180Y022652D02*
X036180Y022092D01*
X035180Y022092D02*
X035180Y022652D01*
X034180Y022652D02*
X034180Y022092D01*
X030680Y022092D02*
X030680Y022652D01*
X029680Y022652D02*
X029680Y022092D01*
X028680Y022092D02*
X028680Y022652D01*
X027680Y022652D02*
X027680Y022092D01*
X026680Y022092D02*
X026680Y022652D01*
X025680Y022652D02*
X025680Y022092D01*
X024680Y022092D02*
X024680Y022652D01*
X023680Y022652D02*
X023680Y022092D01*
X020180Y022092D02*
X020180Y022652D01*
X019180Y022652D02*
X019180Y022092D01*
X018180Y022092D02*
X018180Y022652D01*
X017180Y022652D02*
X017180Y022092D01*
X016180Y022092D02*
X016180Y022652D01*
X015180Y022652D02*
X015180Y022092D01*
X014180Y022092D02*
X014180Y022652D01*
X013180Y022652D02*
X013180Y022092D01*
X009680Y022092D02*
X009680Y022652D01*
X008680Y022652D02*
X008680Y022092D01*
X007680Y022092D02*
X007680Y022652D01*
X006680Y022652D02*
X006680Y022092D01*
X005680Y022092D02*
X005680Y022652D01*
X004680Y022652D02*
X004680Y022092D01*
X003680Y022092D02*
X003680Y022652D01*
X002680Y022652D02*
X002680Y022092D01*
X002680Y025092D02*
X002680Y025652D01*
X003680Y025652D02*
X003680Y025092D01*
X004680Y025092D02*
X004680Y025652D01*
X005680Y025652D02*
X005680Y025092D01*
X006680Y025092D02*
X006680Y025652D01*
X007680Y025652D02*
X007680Y025092D01*
X008680Y025092D02*
X008680Y025652D01*
X009680Y025652D02*
X009680Y025092D01*
X013180Y025092D02*
X013180Y025652D01*
X014180Y025652D02*
X014180Y025092D01*
X015180Y025092D02*
X015180Y025652D01*
X016180Y025652D02*
X016180Y025092D01*
X017180Y025092D02*
X017180Y025652D01*
X018180Y025652D02*
X018180Y025092D01*
X019180Y025092D02*
X019180Y025652D01*
X020180Y025652D02*
X020180Y025092D01*
X023680Y025092D02*
X023680Y025652D01*
X024680Y025652D02*
X024680Y025092D01*
X025680Y025092D02*
X025680Y025652D01*
X026680Y025652D02*
X026680Y025092D01*
X027680Y025092D02*
X027680Y025652D01*
X028680Y025652D02*
X028680Y025092D01*
X029680Y025092D02*
X029680Y025652D01*
X030680Y025652D02*
X030680Y025092D01*
X034180Y025092D02*
X034180Y025652D01*
X035180Y025652D02*
X035180Y025092D01*
X036180Y025092D02*
X036180Y025652D01*
X037180Y025652D02*
X037180Y025092D01*
X038180Y025092D02*
X038180Y025652D01*
X039180Y025652D02*
X039180Y025092D01*
X040180Y025092D02*
X040180Y025652D01*
X041180Y025652D02*
X041180Y025092D01*
X044680Y025092D02*
X044680Y025652D01*
X045680Y025652D02*
X045680Y025092D01*
X046680Y025092D02*
X046680Y025652D01*
X047680Y025652D02*
X047680Y025092D01*
X048680Y025092D02*
X048680Y025652D01*
X049680Y025652D02*
X049680Y025092D01*
X050680Y025092D02*
X050680Y025652D01*
X051680Y025652D02*
X051680Y025092D01*
X055180Y025092D02*
X055180Y025652D01*
X056180Y025652D02*
X056180Y025092D01*
X057180Y025092D02*
X057180Y025652D01*
X058180Y025652D02*
X058180Y025092D01*
X059180Y025092D02*
X059180Y025652D01*
X060180Y025652D02*
X060180Y025092D01*
X061180Y025092D02*
X061180Y025652D01*
X062180Y025652D02*
X062180Y025092D01*
X062180Y019152D02*
X062180Y018592D01*
X061180Y018592D02*
X061180Y019152D01*
X060180Y019152D02*
X060180Y018592D01*
X059180Y018592D02*
X059180Y019152D01*
X058180Y019152D02*
X058180Y018592D01*
X057180Y018592D02*
X057180Y019152D01*
X056180Y019152D02*
X056180Y018592D01*
X055180Y018592D02*
X055180Y019152D01*
X051680Y019152D02*
X051680Y018592D01*
X050680Y018592D02*
X050680Y019152D01*
X049680Y019152D02*
X049680Y018592D01*
X048680Y018592D02*
X048680Y019152D01*
X047680Y019152D02*
X047680Y018592D01*
X046680Y018592D02*
X046680Y019152D01*
X045680Y019152D02*
X045680Y018592D01*
X044680Y018592D02*
X044680Y019152D01*
X041180Y019152D02*
X041180Y018592D01*
X040180Y018592D02*
X040180Y019152D01*
X039180Y019152D02*
X039180Y018592D01*
X038180Y018592D02*
X038180Y019152D01*
X037180Y019152D02*
X037180Y018592D01*
X036180Y018592D02*
X036180Y019152D01*
X035180Y019152D02*
X035180Y018592D01*
X034180Y018592D02*
X034180Y019152D01*
X034180Y016152D02*
X034180Y015592D01*
X035180Y015592D02*
X035180Y016152D01*
X036180Y016152D02*
X036180Y015592D01*
X037180Y015592D02*
X037180Y016152D01*
X038180Y016152D02*
X038180Y015592D01*
X039180Y015592D02*
X039180Y016152D01*
X040180Y016152D02*
X040180Y015592D01*
X041180Y015592D02*
X041180Y016152D01*
X044680Y016152D02*
X044680Y015592D01*
X045680Y015592D02*
X045680Y016152D01*
X046680Y016152D02*
X046680Y015592D01*
X047680Y015592D02*
X047680Y016152D01*
X048680Y016152D02*
X048680Y015592D01*
X049680Y015592D02*
X049680Y016152D01*
X050680Y016152D02*
X050680Y015592D01*
X051680Y015592D02*
X051680Y016152D01*
X055180Y016152D02*
X055180Y015592D01*
X056180Y015592D02*
X056180Y016152D01*
X057180Y016152D02*
X057180Y015592D01*
X058180Y015592D02*
X058180Y016152D01*
X059180Y016152D02*
X059180Y015592D01*
X060180Y015592D02*
X060180Y016152D01*
X061180Y016152D02*
X061180Y015592D01*
X062180Y015592D02*
X062180Y016152D01*
D12*
X046680Y003692D02*
X046680Y003052D01*
X045680Y003052D02*
X045680Y003692D01*
X044680Y003692D02*
X044680Y003052D01*
X007680Y011552D02*
X007680Y012192D01*
X006680Y012192D02*
X006680Y011552D01*
X005680Y011552D02*
X005680Y012192D01*
D13*
X006680Y017772D03*
D14*
X004680Y008872D03*
X008680Y008872D03*
D15*
X007680Y008872D03*
X005680Y008872D03*
D16*
X030180Y017372D03*
D17*
X008610Y005553D02*
X007750Y005553D01*
X010070Y004802D02*
X010070Y003942D01*
X008610Y003191D02*
X007750Y003191D01*
D18*
X007180Y028684D03*
X008197Y028935D03*
X008980Y029629D03*
X009352Y030608D03*
X009225Y031648D03*
X008631Y032509D03*
X007704Y032996D03*
X006656Y032996D03*
X005729Y032509D03*
X005135Y031648D03*
X005008Y030608D03*
X005380Y029629D03*
X006163Y028935D03*
X014508Y030608D03*
X014880Y029629D03*
X015663Y028935D03*
X016680Y028684D03*
X017697Y028935D03*
X018480Y029629D03*
X018852Y030608D03*
X018725Y031648D03*
X018131Y032509D03*
X017204Y032996D03*
X016156Y032996D03*
X015229Y032509D03*
X014635Y031648D03*
X025508Y030608D03*
X025880Y029629D03*
X026663Y028935D03*
X027680Y028684D03*
X028697Y028935D03*
X029480Y029629D03*
X029852Y030608D03*
X029725Y031648D03*
X029131Y032509D03*
X028204Y032996D03*
X027156Y032996D03*
X026229Y032509D03*
X025635Y031648D03*
X035008Y030608D03*
X035380Y029629D03*
X036163Y028935D03*
X037180Y028684D03*
X038197Y028935D03*
X038980Y029629D03*
X039352Y030608D03*
X039225Y031648D03*
X038631Y032509D03*
X037704Y032996D03*
X036656Y032996D03*
X035729Y032509D03*
X035135Y031648D03*
X046008Y030608D03*
X046380Y029629D03*
X047163Y028935D03*
X048180Y028684D03*
X049197Y028935D03*
X049980Y029629D03*
X050352Y030608D03*
X050225Y031648D03*
X049631Y032509D03*
X048704Y032996D03*
X047656Y032996D03*
X046729Y032509D03*
X046135Y031648D03*
X055508Y030608D03*
X055880Y029629D03*
X056663Y028935D03*
X057680Y028684D03*
X058697Y028935D03*
X059480Y029629D03*
X059852Y030608D03*
X059725Y031648D03*
X059131Y032509D03*
X058204Y032996D03*
X057156Y032996D03*
X056229Y032509D03*
X055635Y031648D03*
D19*
X002180Y003872D03*
X002180Y033872D03*
X062680Y033872D03*
X062680Y003872D03*
M02*
