G75*
%MOIN*%
%OFA0B0*%
%FSLAX24Y24*%
%IPPOS*%
%LPD*%
%AMOC8*
5,1,8,0,0,1.08239X$1,22.5*
%
%ADD10C,0.0000*%
%ADD11C,0.0030*%
%ADD12C,0.0040*%
%ADD13C,0.0080*%
%ADD14C,0.0050*%
%ADD15C,0.0060*%
%ADD16C,0.0120*%
%ADD17C,0.0020*%
%ADD18C,0.0070*%
%ADD19R,0.0500X0.0350*%
%ADD20C,0.0010*%
%ADD21C,0.0039*%
%ADD22C,0.0100*%
D10*
X000180Y001872D02*
X000180Y035872D01*
X064680Y035872D01*
X064672Y001872D01*
X000180Y001872D01*
X006030Y017772D02*
X006032Y017822D01*
X006038Y017872D01*
X006048Y017922D01*
X006061Y017970D01*
X006078Y018018D01*
X006099Y018064D01*
X006123Y018108D01*
X006151Y018150D01*
X006182Y018190D01*
X006216Y018227D01*
X006253Y018262D01*
X006292Y018293D01*
X006333Y018322D01*
X006377Y018347D01*
X006423Y018369D01*
X006470Y018387D01*
X006518Y018401D01*
X006567Y018412D01*
X006617Y018419D01*
X006667Y018422D01*
X006718Y018421D01*
X006768Y018416D01*
X006818Y018407D01*
X006866Y018395D01*
X006914Y018378D01*
X006960Y018358D01*
X007005Y018335D01*
X007048Y018308D01*
X007088Y018278D01*
X007126Y018245D01*
X007161Y018209D01*
X007194Y018170D01*
X007223Y018129D01*
X007249Y018086D01*
X007272Y018041D01*
X007291Y017994D01*
X007306Y017946D01*
X007318Y017897D01*
X007326Y017847D01*
X007330Y017797D01*
X007330Y017747D01*
X007326Y017697D01*
X007318Y017647D01*
X007306Y017598D01*
X007291Y017550D01*
X007272Y017503D01*
X007249Y017458D01*
X007223Y017415D01*
X007194Y017374D01*
X007161Y017335D01*
X007126Y017299D01*
X007088Y017266D01*
X007048Y017236D01*
X007005Y017209D01*
X006960Y017186D01*
X006914Y017166D01*
X006866Y017149D01*
X006818Y017137D01*
X006768Y017128D01*
X006718Y017123D01*
X006667Y017122D01*
X006617Y017125D01*
X006567Y017132D01*
X006518Y017143D01*
X006470Y017157D01*
X006423Y017175D01*
X006377Y017197D01*
X006333Y017222D01*
X006292Y017251D01*
X006253Y017282D01*
X006216Y017317D01*
X006182Y017354D01*
X006151Y017394D01*
X006123Y017436D01*
X006099Y017480D01*
X006078Y017526D01*
X006061Y017574D01*
X006048Y017622D01*
X006038Y017672D01*
X006032Y017722D01*
X006030Y017772D01*
D11*
X044195Y002581D02*
X044292Y002678D01*
X044292Y002387D01*
X044388Y002387D02*
X044195Y002387D01*
X044490Y002387D02*
X044683Y002581D01*
X044683Y002629D01*
X044635Y002678D01*
X044538Y002678D01*
X044490Y002629D01*
X044490Y002387D02*
X044683Y002387D01*
X044784Y002484D02*
X044881Y002387D01*
X044978Y002484D01*
X044978Y002678D01*
X044784Y002678D02*
X044784Y002484D01*
X045195Y002436D02*
X045243Y002387D01*
X045340Y002387D01*
X045388Y002436D01*
X045388Y002532D01*
X045340Y002581D01*
X045292Y002581D01*
X045195Y002532D01*
X045195Y002678D01*
X045388Y002678D01*
X045490Y002678D02*
X045490Y002484D01*
X045586Y002387D01*
X045683Y002484D01*
X045683Y002678D01*
X046195Y002629D02*
X046195Y002436D01*
X046243Y002387D01*
X046340Y002387D01*
X046388Y002436D01*
X046388Y002532D01*
X046292Y002532D01*
X046388Y002629D02*
X046340Y002678D01*
X046243Y002678D01*
X046195Y002629D01*
X046490Y002678D02*
X046683Y002387D01*
X046683Y002678D01*
X046784Y002678D02*
X046784Y002387D01*
X046929Y002387D01*
X046978Y002436D01*
X046978Y002629D01*
X046929Y002678D01*
X046784Y002678D01*
X046490Y002678D02*
X046490Y002387D01*
D12*
X045083Y010051D02*
X044700Y010051D01*
X044700Y010358D02*
X045083Y010358D01*
X045160Y010281D01*
X045160Y010127D01*
X045083Y010051D01*
X045083Y010511D02*
X045160Y010588D01*
X045160Y010741D01*
X045083Y010818D01*
X045007Y010818D01*
X044930Y010741D01*
X044930Y010588D01*
X044853Y010511D01*
X044776Y010511D01*
X044700Y010588D01*
X044700Y010741D01*
X044776Y010818D01*
X044853Y010971D02*
X044700Y011125D01*
X045160Y011125D01*
X045160Y011278D02*
X045160Y010971D01*
X045237Y010665D02*
X044623Y010665D01*
X044776Y011432D02*
X044700Y011509D01*
X044700Y011662D01*
X044776Y011739D01*
X045083Y011432D01*
X045160Y011509D01*
X045160Y011662D01*
X045083Y011739D01*
X044776Y011739D01*
X044776Y011432D02*
X045083Y011432D01*
X023306Y002622D02*
X023306Y002469D01*
X023230Y002392D01*
X023076Y002392D01*
X022999Y002469D01*
X022999Y002622D01*
X023076Y002699D01*
X023230Y002699D01*
X023306Y002622D01*
X022846Y002699D02*
X022616Y002546D01*
X022846Y002392D01*
X022616Y002392D02*
X022616Y002853D01*
X022462Y002699D02*
X022232Y002699D01*
X022155Y002622D01*
X022155Y002469D01*
X022232Y002392D01*
X022462Y002392D01*
X022002Y002546D02*
X021695Y002546D01*
X021695Y002622D02*
X021772Y002699D01*
X021925Y002699D01*
X022002Y002622D01*
X022002Y002546D01*
X021925Y002392D02*
X021772Y002392D01*
X021695Y002469D01*
X021695Y002622D01*
X021542Y002622D02*
X021388Y002622D01*
X021542Y002622D02*
X021542Y002469D01*
X021465Y002392D01*
X021311Y002392D01*
X021235Y002469D01*
X021235Y002776D01*
X021311Y002853D01*
X021465Y002853D01*
X021542Y002776D01*
X020621Y002469D02*
X020621Y002392D01*
X020544Y002392D01*
X020544Y002469D01*
X020621Y002469D01*
X020391Y002699D02*
X020314Y002699D01*
X020160Y002546D01*
X020160Y002699D02*
X020160Y002392D01*
X020007Y002392D02*
X020007Y002853D01*
X019853Y002699D01*
X019700Y002853D01*
X019700Y002392D01*
X006160Y001160D02*
X006160Y000853D01*
X005853Y001160D01*
X005776Y001160D01*
X005700Y001083D01*
X005700Y000929D01*
X005776Y000853D01*
X005700Y000699D02*
X005700Y000546D01*
X005700Y000622D02*
X006083Y000622D01*
X006160Y000546D01*
X006160Y000469D01*
X006083Y000392D01*
X006027Y016376D02*
X006144Y016492D01*
X006086Y016492D01*
X006086Y016551D01*
X006144Y016551D01*
X006144Y016492D01*
X006267Y016492D02*
X006500Y016726D01*
X006500Y016784D01*
X006442Y016843D01*
X006325Y016843D01*
X006267Y016784D01*
X006267Y016492D02*
X006500Y016492D01*
X006626Y016492D02*
X006626Y016726D01*
X006684Y016726D01*
X006743Y016667D01*
X006801Y016726D01*
X006859Y016667D01*
X006859Y016492D01*
X006743Y016492D02*
X006743Y016667D01*
X006985Y016726D02*
X007043Y016726D01*
X007102Y016667D01*
X007160Y016726D01*
X007218Y016667D01*
X007218Y016492D01*
X007102Y016492D02*
X007102Y016667D01*
X006985Y016726D02*
X006985Y016492D01*
X005902Y016551D02*
X005902Y016667D01*
X005843Y016726D01*
X005785Y016726D01*
X005668Y016667D01*
X005668Y016843D01*
X005902Y016843D01*
X005902Y016551D02*
X005843Y016492D01*
X005727Y016492D01*
X005668Y016551D01*
X005543Y016492D02*
X005309Y016492D01*
X005426Y016492D02*
X005426Y016843D01*
X005309Y016726D01*
X005184Y016726D02*
X005184Y016492D01*
X005184Y016667D02*
X004950Y016667D01*
X004950Y016726D02*
X005067Y016843D01*
X005184Y016726D01*
X004950Y016726D02*
X004950Y016492D01*
X005591Y030830D02*
X005591Y031290D01*
X005438Y031290D02*
X005745Y031290D01*
X005898Y031290D02*
X005898Y030907D01*
X005975Y030830D01*
X006128Y030830D01*
X006205Y030907D01*
X006205Y031290D01*
X006358Y031290D02*
X006589Y031290D01*
X006665Y031213D01*
X006665Y031137D01*
X006589Y031060D01*
X006358Y031060D01*
X006358Y030830D02*
X006358Y031290D01*
X006589Y031060D02*
X006665Y030983D01*
X006665Y030907D01*
X006589Y030830D01*
X006358Y030830D01*
X006819Y030830D02*
X006819Y031290D01*
X007126Y031290D01*
X007279Y031060D02*
X007586Y031060D01*
X007740Y031137D02*
X007893Y031290D01*
X007893Y030830D01*
X007740Y030830D02*
X008047Y030830D01*
X007126Y030830D02*
X006819Y030830D01*
X006819Y031060D02*
X006972Y031060D01*
X014938Y031290D02*
X015245Y031290D01*
X015398Y031290D02*
X015398Y030907D01*
X015475Y030830D01*
X015628Y030830D01*
X015705Y030907D01*
X015705Y031290D01*
X015858Y031290D02*
X016089Y031290D01*
X016165Y031213D01*
X016165Y031137D01*
X016089Y031060D01*
X015858Y031060D01*
X015858Y030830D02*
X015858Y031290D01*
X016089Y031060D02*
X016165Y030983D01*
X016165Y030907D01*
X016089Y030830D01*
X015858Y030830D01*
X016319Y030830D02*
X016319Y031290D01*
X016626Y031290D01*
X016779Y031060D02*
X017086Y031060D01*
X017240Y031213D02*
X017316Y031290D01*
X017470Y031290D01*
X017547Y031213D01*
X017547Y031137D01*
X017240Y030830D01*
X017547Y030830D01*
X016626Y030830D02*
X016319Y030830D01*
X016319Y031060D02*
X016472Y031060D01*
X015091Y030830D02*
X015091Y031290D01*
X025938Y031290D02*
X026245Y031290D01*
X026398Y031290D02*
X026398Y030907D01*
X026475Y030830D01*
X026628Y030830D01*
X026705Y030907D01*
X026705Y031290D01*
X026858Y031290D02*
X027089Y031290D01*
X027165Y031213D01*
X027165Y031137D01*
X027089Y031060D01*
X026858Y031060D01*
X026858Y030830D02*
X026858Y031290D01*
X027089Y031060D02*
X027165Y030983D01*
X027165Y030907D01*
X027089Y030830D01*
X026858Y030830D01*
X027319Y030830D02*
X027319Y031290D01*
X027626Y031290D01*
X027779Y031060D02*
X028086Y031060D01*
X028240Y031213D02*
X028316Y031290D01*
X028470Y031290D01*
X028547Y031213D01*
X028547Y031137D01*
X028470Y031060D01*
X028547Y030983D01*
X028547Y030907D01*
X028470Y030830D01*
X028316Y030830D01*
X028240Y030907D01*
X028393Y031060D02*
X028470Y031060D01*
X027626Y030830D02*
X027319Y030830D01*
X027319Y031060D02*
X027472Y031060D01*
X026091Y030830D02*
X026091Y031290D01*
X035438Y031290D02*
X035745Y031290D01*
X035898Y031290D02*
X035898Y030907D01*
X035975Y030830D01*
X036128Y030830D01*
X036205Y030907D01*
X036205Y031290D01*
X036358Y031290D02*
X036589Y031290D01*
X036665Y031213D01*
X036665Y031137D01*
X036589Y031060D01*
X036358Y031060D01*
X036358Y030830D02*
X036358Y031290D01*
X036589Y031060D02*
X036665Y030983D01*
X036665Y030907D01*
X036589Y030830D01*
X036358Y030830D01*
X036819Y030830D02*
X036819Y031290D01*
X037126Y031290D01*
X037279Y031060D02*
X037586Y031060D01*
X037740Y031060D02*
X038047Y031060D01*
X037970Y031290D02*
X037740Y031060D01*
X037970Y030830D02*
X037970Y031290D01*
X037126Y030830D02*
X036819Y030830D01*
X036819Y031060D02*
X036972Y031060D01*
X035591Y030830D02*
X035591Y031290D01*
X046438Y031290D02*
X046745Y031290D01*
X046898Y031290D02*
X046898Y030907D01*
X046975Y030830D01*
X047128Y030830D01*
X047205Y030907D01*
X047205Y031290D01*
X047358Y031290D02*
X047589Y031290D01*
X047665Y031213D01*
X047665Y031137D01*
X047589Y031060D01*
X047358Y031060D01*
X047358Y030830D02*
X047358Y031290D01*
X047589Y031060D02*
X047665Y030983D01*
X047665Y030907D01*
X047589Y030830D01*
X047358Y030830D01*
X047819Y030830D02*
X047819Y031290D01*
X048126Y031290D01*
X048279Y031060D02*
X048586Y031060D01*
X048740Y031060D02*
X048893Y031137D01*
X048970Y031137D01*
X049047Y031060D01*
X049047Y030907D01*
X048970Y030830D01*
X048816Y030830D01*
X048740Y030907D01*
X048740Y031060D02*
X048740Y031290D01*
X049047Y031290D01*
X048126Y030830D02*
X047819Y030830D01*
X047819Y031060D02*
X047972Y031060D01*
X046591Y030830D02*
X046591Y031290D01*
X055938Y031290D02*
X056245Y031290D01*
X056398Y031290D02*
X056398Y030907D01*
X056475Y030830D01*
X056628Y030830D01*
X056705Y030907D01*
X056705Y031290D01*
X056858Y031290D02*
X057089Y031290D01*
X057165Y031213D01*
X057165Y031137D01*
X057089Y031060D01*
X056858Y031060D01*
X056858Y030830D02*
X056858Y031290D01*
X057089Y031060D02*
X057165Y030983D01*
X057165Y030907D01*
X057089Y030830D01*
X056858Y030830D01*
X057319Y030830D02*
X057319Y031290D01*
X057626Y031290D01*
X057779Y031060D02*
X058086Y031060D01*
X058240Y031060D02*
X058470Y031060D01*
X058547Y030983D01*
X058547Y030907D01*
X058470Y030830D01*
X058316Y030830D01*
X058240Y030907D01*
X058240Y031060D01*
X058393Y031213D01*
X058547Y031290D01*
X057626Y030830D02*
X057319Y030830D01*
X057319Y031060D02*
X057472Y031060D01*
X056091Y030830D02*
X056091Y031290D01*
D13*
X061932Y033872D02*
X061934Y033927D01*
X061940Y033981D01*
X061950Y034035D01*
X061964Y034087D01*
X061981Y034139D01*
X062003Y034189D01*
X062028Y034238D01*
X062056Y034285D01*
X062088Y034329D01*
X062123Y034371D01*
X062161Y034410D01*
X062202Y034447D01*
X062245Y034480D01*
X062290Y034510D01*
X062338Y034537D01*
X062387Y034560D01*
X062438Y034580D01*
X062491Y034596D01*
X062544Y034608D01*
X062598Y034616D01*
X062653Y034620D01*
X062707Y034620D01*
X062762Y034616D01*
X062816Y034608D01*
X062869Y034596D01*
X062922Y034580D01*
X062973Y034560D01*
X063022Y034537D01*
X063070Y034510D01*
X063115Y034480D01*
X063158Y034447D01*
X063199Y034410D01*
X063237Y034371D01*
X063272Y034329D01*
X063304Y034285D01*
X063332Y034238D01*
X063357Y034189D01*
X063379Y034139D01*
X063396Y034087D01*
X063410Y034035D01*
X063420Y033981D01*
X063426Y033927D01*
X063428Y033872D01*
X063426Y033817D01*
X063420Y033763D01*
X063410Y033709D01*
X063396Y033657D01*
X063379Y033605D01*
X063357Y033555D01*
X063332Y033506D01*
X063304Y033459D01*
X063272Y033415D01*
X063237Y033373D01*
X063199Y033334D01*
X063158Y033297D01*
X063115Y033264D01*
X063070Y033234D01*
X063022Y033207D01*
X062973Y033184D01*
X062922Y033164D01*
X062869Y033148D01*
X062816Y033136D01*
X062762Y033128D01*
X062707Y033124D01*
X062653Y033124D01*
X062598Y033128D01*
X062544Y033136D01*
X062491Y033148D01*
X062438Y033164D01*
X062387Y033184D01*
X062338Y033207D01*
X062290Y033234D01*
X062245Y033264D01*
X062202Y033297D01*
X062161Y033334D01*
X062123Y033373D01*
X062088Y033415D01*
X062056Y033459D01*
X062028Y033506D01*
X062003Y033555D01*
X061981Y033605D01*
X061964Y033657D01*
X061950Y033709D01*
X061940Y033763D01*
X061934Y033817D01*
X061932Y033872D01*
X063208Y024112D02*
X063208Y021632D01*
X064152Y021632D01*
X064152Y024112D01*
X063208Y024112D01*
X054152Y024112D02*
X054152Y021632D01*
X053208Y021632D01*
X053208Y024112D01*
X054152Y024112D01*
X043652Y024112D02*
X043652Y021632D01*
X042708Y021632D01*
X042708Y024112D01*
X043652Y024112D01*
X033152Y024112D02*
X033152Y021632D01*
X032208Y021632D01*
X032208Y024112D01*
X033152Y024112D01*
X022652Y024112D02*
X022652Y021632D01*
X021708Y021632D01*
X021708Y024112D01*
X022652Y024112D01*
X012152Y024112D02*
X012152Y021632D01*
X011208Y021632D01*
X011208Y024112D01*
X012152Y024112D01*
X001432Y033872D02*
X001434Y033927D01*
X001440Y033981D01*
X001450Y034035D01*
X001464Y034087D01*
X001481Y034139D01*
X001503Y034189D01*
X001528Y034238D01*
X001556Y034285D01*
X001588Y034329D01*
X001623Y034371D01*
X001661Y034410D01*
X001702Y034447D01*
X001745Y034480D01*
X001790Y034510D01*
X001838Y034537D01*
X001887Y034560D01*
X001938Y034580D01*
X001991Y034596D01*
X002044Y034608D01*
X002098Y034616D01*
X002153Y034620D01*
X002207Y034620D01*
X002262Y034616D01*
X002316Y034608D01*
X002369Y034596D01*
X002422Y034580D01*
X002473Y034560D01*
X002522Y034537D01*
X002570Y034510D01*
X002615Y034480D01*
X002658Y034447D01*
X002699Y034410D01*
X002737Y034371D01*
X002772Y034329D01*
X002804Y034285D01*
X002832Y034238D01*
X002857Y034189D01*
X002879Y034139D01*
X002896Y034087D01*
X002910Y034035D01*
X002920Y033981D01*
X002926Y033927D01*
X002928Y033872D01*
X002926Y033817D01*
X002920Y033763D01*
X002910Y033709D01*
X002896Y033657D01*
X002879Y033605D01*
X002857Y033555D01*
X002832Y033506D01*
X002804Y033459D01*
X002772Y033415D01*
X002737Y033373D01*
X002699Y033334D01*
X002658Y033297D01*
X002615Y033264D01*
X002570Y033234D01*
X002522Y033207D01*
X002473Y033184D01*
X002422Y033164D01*
X002369Y033148D01*
X002316Y033136D01*
X002262Y033128D01*
X002207Y033124D01*
X002153Y033124D01*
X002098Y033128D01*
X002044Y033136D01*
X001991Y033148D01*
X001938Y033164D01*
X001887Y033184D01*
X001838Y033207D01*
X001790Y033234D01*
X001745Y033264D01*
X001702Y033297D01*
X001661Y033334D01*
X001623Y033373D01*
X001588Y033415D01*
X001556Y033459D01*
X001528Y033506D01*
X001503Y033555D01*
X001481Y033605D01*
X001464Y033657D01*
X001450Y033709D01*
X001440Y033763D01*
X001434Y033817D01*
X001432Y033872D01*
X036680Y014122D02*
X036680Y013622D01*
X036930Y013372D01*
X037430Y013372D01*
X037680Y013622D01*
X037930Y013372D01*
X038430Y013372D01*
X038680Y013622D01*
X038930Y013372D01*
X039430Y013372D01*
X039680Y013622D01*
X039680Y014122D01*
X039430Y014372D01*
X038930Y014372D01*
X038680Y014122D01*
X038430Y014372D01*
X037930Y014372D01*
X037680Y014122D01*
X037430Y014372D01*
X036930Y014372D01*
X036680Y014122D01*
X036940Y012845D02*
X039420Y012845D01*
X039420Y011900D01*
X036940Y011900D01*
X036940Y012845D01*
X036930Y010372D02*
X037180Y010122D01*
X037430Y010372D01*
X037930Y010372D01*
X038180Y010122D01*
X038430Y010372D01*
X038930Y010372D01*
X039180Y010122D01*
X039430Y010372D01*
X039930Y010372D01*
X040180Y010122D01*
X040430Y010372D01*
X040930Y010372D01*
X041180Y010122D01*
X041180Y009622D01*
X040930Y009372D01*
X040430Y009372D01*
X040180Y009622D01*
X039930Y009372D01*
X039430Y009372D01*
X039180Y009622D01*
X038930Y009372D01*
X038430Y009372D01*
X038180Y009622D01*
X037930Y009372D01*
X037430Y009372D01*
X037180Y009622D01*
X036930Y009372D01*
X036430Y009372D01*
X036180Y009622D01*
X036180Y010122D01*
X036430Y010372D01*
X036930Y010372D01*
X045440Y009900D02*
X047920Y009900D01*
X047920Y010845D01*
X045440Y010845D01*
X045440Y009900D01*
X045440Y009345D02*
X047920Y009345D01*
X047920Y008400D01*
X045440Y008400D01*
X045440Y009345D01*
X058324Y008083D02*
X060036Y008083D01*
X060036Y012662D01*
X058324Y012662D01*
X058324Y008083D01*
X060980Y007522D02*
X060980Y009222D01*
X061787Y009572D02*
X062580Y009572D01*
X063380Y009222D02*
X063380Y007522D01*
X062580Y007172D02*
X061775Y007172D01*
X061480Y008372D02*
X061482Y008424D01*
X061488Y008476D01*
X061498Y008528D01*
X061511Y008578D01*
X061528Y008628D01*
X061549Y008676D01*
X061574Y008722D01*
X061602Y008766D01*
X061633Y008808D01*
X061667Y008848D01*
X061704Y008885D01*
X061744Y008919D01*
X061786Y008950D01*
X061830Y008978D01*
X061876Y009003D01*
X061924Y009024D01*
X061974Y009041D01*
X062024Y009054D01*
X062076Y009064D01*
X062128Y009070D01*
X062180Y009072D01*
X062232Y009070D01*
X062284Y009064D01*
X062336Y009054D01*
X062386Y009041D01*
X062436Y009024D01*
X062484Y009003D01*
X062530Y008978D01*
X062574Y008950D01*
X062616Y008919D01*
X062656Y008885D01*
X062693Y008848D01*
X062727Y008808D01*
X062758Y008766D01*
X062786Y008722D01*
X062811Y008676D01*
X062832Y008628D01*
X062849Y008578D01*
X062862Y008528D01*
X062872Y008476D01*
X062878Y008424D01*
X062880Y008372D01*
X062878Y008320D01*
X062872Y008268D01*
X062862Y008216D01*
X062849Y008166D01*
X062832Y008116D01*
X062811Y008068D01*
X062786Y008022D01*
X062758Y007978D01*
X062727Y007936D01*
X062693Y007896D01*
X062656Y007859D01*
X062616Y007825D01*
X062574Y007794D01*
X062530Y007766D01*
X062484Y007741D01*
X062436Y007720D01*
X062386Y007703D01*
X062336Y007690D01*
X062284Y007680D01*
X062232Y007674D01*
X062180Y007672D01*
X062128Y007674D01*
X062076Y007680D01*
X062024Y007690D01*
X061974Y007703D01*
X061924Y007720D01*
X061876Y007741D01*
X061830Y007766D01*
X061786Y007794D01*
X061744Y007825D01*
X061704Y007859D01*
X061667Y007896D01*
X061633Y007936D01*
X061602Y007978D01*
X061574Y008022D01*
X061549Y008068D01*
X061528Y008116D01*
X061511Y008166D01*
X061498Y008216D01*
X061488Y008268D01*
X061482Y008320D01*
X061480Y008372D01*
X061775Y011172D02*
X062580Y011172D01*
X063380Y011522D02*
X063380Y013222D01*
X062580Y013572D02*
X061787Y013572D01*
X060980Y013222D02*
X060980Y011522D01*
X061480Y012372D02*
X061482Y012424D01*
X061488Y012476D01*
X061498Y012528D01*
X061511Y012578D01*
X061528Y012628D01*
X061549Y012676D01*
X061574Y012722D01*
X061602Y012766D01*
X061633Y012808D01*
X061667Y012848D01*
X061704Y012885D01*
X061744Y012919D01*
X061786Y012950D01*
X061830Y012978D01*
X061876Y013003D01*
X061924Y013024D01*
X061974Y013041D01*
X062024Y013054D01*
X062076Y013064D01*
X062128Y013070D01*
X062180Y013072D01*
X062232Y013070D01*
X062284Y013064D01*
X062336Y013054D01*
X062386Y013041D01*
X062436Y013024D01*
X062484Y013003D01*
X062530Y012978D01*
X062574Y012950D01*
X062616Y012919D01*
X062656Y012885D01*
X062693Y012848D01*
X062727Y012808D01*
X062758Y012766D01*
X062786Y012722D01*
X062811Y012676D01*
X062832Y012628D01*
X062849Y012578D01*
X062862Y012528D01*
X062872Y012476D01*
X062878Y012424D01*
X062880Y012372D01*
X062878Y012320D01*
X062872Y012268D01*
X062862Y012216D01*
X062849Y012166D01*
X062832Y012116D01*
X062811Y012068D01*
X062786Y012022D01*
X062758Y011978D01*
X062727Y011936D01*
X062693Y011896D01*
X062656Y011859D01*
X062616Y011825D01*
X062574Y011794D01*
X062530Y011766D01*
X062484Y011741D01*
X062436Y011720D01*
X062386Y011703D01*
X062336Y011690D01*
X062284Y011680D01*
X062232Y011674D01*
X062180Y011672D01*
X062128Y011674D01*
X062076Y011680D01*
X062024Y011690D01*
X061974Y011703D01*
X061924Y011720D01*
X061876Y011741D01*
X061830Y011766D01*
X061786Y011794D01*
X061744Y011825D01*
X061704Y011859D01*
X061667Y011896D01*
X061633Y011936D01*
X061602Y011978D01*
X061574Y012022D01*
X061549Y012068D01*
X061528Y012116D01*
X061511Y012166D01*
X061498Y012216D01*
X061488Y012268D01*
X061482Y012320D01*
X061480Y012372D01*
X061932Y003872D02*
X061934Y003927D01*
X061940Y003981D01*
X061950Y004035D01*
X061964Y004087D01*
X061981Y004139D01*
X062003Y004189D01*
X062028Y004238D01*
X062056Y004285D01*
X062088Y004329D01*
X062123Y004371D01*
X062161Y004410D01*
X062202Y004447D01*
X062245Y004480D01*
X062290Y004510D01*
X062338Y004537D01*
X062387Y004560D01*
X062438Y004580D01*
X062491Y004596D01*
X062544Y004608D01*
X062598Y004616D01*
X062653Y004620D01*
X062707Y004620D01*
X062762Y004616D01*
X062816Y004608D01*
X062869Y004596D01*
X062922Y004580D01*
X062973Y004560D01*
X063022Y004537D01*
X063070Y004510D01*
X063115Y004480D01*
X063158Y004447D01*
X063199Y004410D01*
X063237Y004371D01*
X063272Y004329D01*
X063304Y004285D01*
X063332Y004238D01*
X063357Y004189D01*
X063379Y004139D01*
X063396Y004087D01*
X063410Y004035D01*
X063420Y003981D01*
X063426Y003927D01*
X063428Y003872D01*
X063426Y003817D01*
X063420Y003763D01*
X063410Y003709D01*
X063396Y003657D01*
X063379Y003605D01*
X063357Y003555D01*
X063332Y003506D01*
X063304Y003459D01*
X063272Y003415D01*
X063237Y003373D01*
X063199Y003334D01*
X063158Y003297D01*
X063115Y003264D01*
X063070Y003234D01*
X063022Y003207D01*
X062973Y003184D01*
X062922Y003164D01*
X062869Y003148D01*
X062816Y003136D01*
X062762Y003128D01*
X062707Y003124D01*
X062653Y003124D01*
X062598Y003128D01*
X062544Y003136D01*
X062491Y003148D01*
X062438Y003164D01*
X062387Y003184D01*
X062338Y003207D01*
X062290Y003234D01*
X062245Y003264D01*
X062202Y003297D01*
X062161Y003334D01*
X062123Y003373D01*
X062088Y003415D01*
X062056Y003459D01*
X062028Y003506D01*
X062003Y003555D01*
X061981Y003605D01*
X061964Y003657D01*
X061950Y003709D01*
X061940Y003763D01*
X061934Y003817D01*
X061932Y003872D01*
X007196Y008872D02*
X007198Y008934D01*
X007204Y008997D01*
X007214Y009058D01*
X007228Y009119D01*
X007245Y009179D01*
X007266Y009238D01*
X007292Y009295D01*
X007320Y009350D01*
X007352Y009404D01*
X007388Y009455D01*
X007426Y009505D01*
X007468Y009551D01*
X007512Y009595D01*
X007560Y009636D01*
X007609Y009674D01*
X007661Y009708D01*
X007715Y009739D01*
X007771Y009767D01*
X007829Y009791D01*
X007888Y009812D01*
X007948Y009828D01*
X008009Y009841D01*
X008071Y009850D01*
X008133Y009855D01*
X008196Y009856D01*
X008258Y009853D01*
X008320Y009846D01*
X008382Y009835D01*
X008442Y009820D01*
X008502Y009802D01*
X008560Y009780D01*
X008617Y009754D01*
X008672Y009724D01*
X008725Y009691D01*
X008776Y009655D01*
X008824Y009616D01*
X008870Y009573D01*
X008913Y009528D01*
X008953Y009480D01*
X008990Y009430D01*
X009024Y009377D01*
X009055Y009323D01*
X009081Y009267D01*
X009105Y009209D01*
X009124Y009149D01*
X009140Y009089D01*
X009152Y009027D01*
X009160Y008966D01*
X009164Y008903D01*
X009164Y008841D01*
X009160Y008778D01*
X009152Y008717D01*
X009140Y008655D01*
X009124Y008595D01*
X009105Y008535D01*
X009081Y008477D01*
X009055Y008421D01*
X009024Y008367D01*
X008990Y008314D01*
X008953Y008264D01*
X008913Y008216D01*
X008870Y008171D01*
X008824Y008128D01*
X008776Y008089D01*
X008725Y008053D01*
X008672Y008020D01*
X008617Y007990D01*
X008560Y007964D01*
X008502Y007942D01*
X008442Y007924D01*
X008382Y007909D01*
X008320Y007898D01*
X008258Y007891D01*
X008196Y007888D01*
X008133Y007889D01*
X008071Y007894D01*
X008009Y007903D01*
X007948Y007916D01*
X007888Y007932D01*
X007829Y007953D01*
X007771Y007977D01*
X007715Y008005D01*
X007661Y008036D01*
X007609Y008070D01*
X007560Y008108D01*
X007512Y008149D01*
X007468Y008193D01*
X007426Y008239D01*
X007388Y008289D01*
X007352Y008340D01*
X007320Y008394D01*
X007292Y008449D01*
X007266Y008506D01*
X007245Y008565D01*
X007228Y008625D01*
X007214Y008686D01*
X007204Y008747D01*
X007198Y008810D01*
X007196Y008872D01*
X007480Y009422D02*
X007880Y009422D01*
X005880Y008322D02*
X005480Y008322D01*
X004196Y008872D02*
X004198Y008934D01*
X004204Y008997D01*
X004214Y009058D01*
X004228Y009119D01*
X004245Y009179D01*
X004266Y009238D01*
X004292Y009295D01*
X004320Y009350D01*
X004352Y009404D01*
X004388Y009455D01*
X004426Y009505D01*
X004468Y009551D01*
X004512Y009595D01*
X004560Y009636D01*
X004609Y009674D01*
X004661Y009708D01*
X004715Y009739D01*
X004771Y009767D01*
X004829Y009791D01*
X004888Y009812D01*
X004948Y009828D01*
X005009Y009841D01*
X005071Y009850D01*
X005133Y009855D01*
X005196Y009856D01*
X005258Y009853D01*
X005320Y009846D01*
X005382Y009835D01*
X005442Y009820D01*
X005502Y009802D01*
X005560Y009780D01*
X005617Y009754D01*
X005672Y009724D01*
X005725Y009691D01*
X005776Y009655D01*
X005824Y009616D01*
X005870Y009573D01*
X005913Y009528D01*
X005953Y009480D01*
X005990Y009430D01*
X006024Y009377D01*
X006055Y009323D01*
X006081Y009267D01*
X006105Y009209D01*
X006124Y009149D01*
X006140Y009089D01*
X006152Y009027D01*
X006160Y008966D01*
X006164Y008903D01*
X006164Y008841D01*
X006160Y008778D01*
X006152Y008717D01*
X006140Y008655D01*
X006124Y008595D01*
X006105Y008535D01*
X006081Y008477D01*
X006055Y008421D01*
X006024Y008367D01*
X005990Y008314D01*
X005953Y008264D01*
X005913Y008216D01*
X005870Y008171D01*
X005824Y008128D01*
X005776Y008089D01*
X005725Y008053D01*
X005672Y008020D01*
X005617Y007990D01*
X005560Y007964D01*
X005502Y007942D01*
X005442Y007924D01*
X005382Y007909D01*
X005320Y007898D01*
X005258Y007891D01*
X005196Y007888D01*
X005133Y007889D01*
X005071Y007894D01*
X005009Y007903D01*
X004948Y007916D01*
X004888Y007932D01*
X004829Y007953D01*
X004771Y007977D01*
X004715Y008005D01*
X004661Y008036D01*
X004609Y008070D01*
X004560Y008108D01*
X004512Y008149D01*
X004468Y008193D01*
X004426Y008239D01*
X004388Y008289D01*
X004352Y008340D01*
X004320Y008394D01*
X004292Y008449D01*
X004266Y008506D01*
X004245Y008565D01*
X004228Y008625D01*
X004214Y008686D01*
X004204Y008747D01*
X004198Y008810D01*
X004196Y008872D01*
X001432Y003872D02*
X001434Y003927D01*
X001440Y003981D01*
X001450Y004035D01*
X001464Y004087D01*
X001481Y004139D01*
X001503Y004189D01*
X001528Y004238D01*
X001556Y004285D01*
X001588Y004329D01*
X001623Y004371D01*
X001661Y004410D01*
X001702Y004447D01*
X001745Y004480D01*
X001790Y004510D01*
X001838Y004537D01*
X001887Y004560D01*
X001938Y004580D01*
X001991Y004596D01*
X002044Y004608D01*
X002098Y004616D01*
X002153Y004620D01*
X002207Y004620D01*
X002262Y004616D01*
X002316Y004608D01*
X002369Y004596D01*
X002422Y004580D01*
X002473Y004560D01*
X002522Y004537D01*
X002570Y004510D01*
X002615Y004480D01*
X002658Y004447D01*
X002699Y004410D01*
X002737Y004371D01*
X002772Y004329D01*
X002804Y004285D01*
X002832Y004238D01*
X002857Y004189D01*
X002879Y004139D01*
X002896Y004087D01*
X002910Y004035D01*
X002920Y003981D01*
X002926Y003927D01*
X002928Y003872D01*
X002926Y003817D01*
X002920Y003763D01*
X002910Y003709D01*
X002896Y003657D01*
X002879Y003605D01*
X002857Y003555D01*
X002832Y003506D01*
X002804Y003459D01*
X002772Y003415D01*
X002737Y003373D01*
X002699Y003334D01*
X002658Y003297D01*
X002615Y003264D01*
X002570Y003234D01*
X002522Y003207D01*
X002473Y003184D01*
X002422Y003164D01*
X002369Y003148D01*
X002316Y003136D01*
X002262Y003128D01*
X002207Y003124D01*
X002153Y003124D01*
X002098Y003128D01*
X002044Y003136D01*
X001991Y003148D01*
X001938Y003164D01*
X001887Y003184D01*
X001838Y003207D01*
X001790Y003234D01*
X001745Y003264D01*
X001702Y003297D01*
X001661Y003334D01*
X001623Y003373D01*
X001588Y003415D01*
X001556Y003459D01*
X001528Y003506D01*
X001503Y003555D01*
X001481Y003605D01*
X001464Y003657D01*
X001450Y003709D01*
X001440Y003763D01*
X001434Y003817D01*
X001432Y003872D01*
D14*
X012180Y004372D02*
X012180Y019372D01*
X032180Y019372D01*
X032180Y004372D01*
X012180Y004372D01*
X016676Y010677D02*
X016676Y011128D01*
X016976Y010677D01*
X016976Y011128D01*
X017136Y011128D02*
X017286Y011128D01*
X017211Y011128D02*
X017211Y010677D01*
X017136Y010677D02*
X017286Y010677D01*
X017443Y010677D02*
X017743Y011128D01*
X017903Y011128D02*
X018053Y011128D01*
X017978Y011128D02*
X017978Y010677D01*
X017903Y010677D02*
X018053Y010677D01*
X018210Y010677D02*
X018210Y011128D01*
X018511Y011128D01*
X018360Y010902D02*
X018210Y010902D01*
X018210Y010677D02*
X018511Y010677D01*
X018671Y010602D02*
X018971Y010602D01*
X019131Y010677D02*
X019131Y011128D01*
X019356Y011128D01*
X019431Y011053D01*
X019431Y010902D01*
X019356Y010827D01*
X019131Y010827D01*
X019591Y010677D02*
X019742Y010827D01*
X019892Y010677D01*
X019892Y011128D01*
X020052Y011128D02*
X020277Y011128D01*
X020352Y011053D01*
X020352Y010902D01*
X020277Y010827D01*
X020052Y010827D01*
X020052Y010677D02*
X020052Y011128D01*
X020202Y010827D02*
X020352Y010677D01*
X020512Y010602D02*
X020812Y010602D01*
X020973Y010752D02*
X021048Y010677D01*
X021198Y010677D01*
X021273Y010752D01*
X021273Y010827D01*
X021198Y010902D01*
X021048Y010902D01*
X020973Y010978D01*
X020973Y011053D01*
X021048Y011128D01*
X021198Y011128D01*
X021273Y011053D01*
X021433Y011128D02*
X021433Y010752D01*
X021508Y010677D01*
X021658Y010677D01*
X021733Y010752D01*
X021733Y011128D01*
X021893Y011128D02*
X022119Y011128D01*
X022194Y011053D01*
X022194Y010902D01*
X022119Y010827D01*
X021893Y010827D01*
X021893Y010677D02*
X021893Y011128D01*
X022354Y011128D02*
X022354Y010677D01*
X022354Y010827D02*
X022579Y010827D01*
X022654Y010902D01*
X022654Y011053D01*
X022579Y011128D01*
X022354Y011128D01*
X022814Y011128D02*
X022814Y010677D01*
X023114Y010677D01*
X023425Y010677D02*
X023425Y010902D01*
X023575Y011053D01*
X023575Y011128D01*
X023425Y010902D02*
X023275Y011053D01*
X023275Y011128D01*
X019591Y011128D02*
X019591Y010677D01*
X017743Y010677D02*
X017443Y011128D01*
X033055Y016247D02*
X033055Y016397D01*
X033055Y016322D02*
X033505Y016322D01*
X033505Y016247D02*
X033505Y016397D01*
X033430Y016554D02*
X033505Y016629D01*
X033505Y016779D01*
X033430Y016854D01*
X033505Y017015D02*
X033505Y017315D01*
X033505Y017165D02*
X033055Y017165D01*
X033205Y017015D01*
X033130Y016854D02*
X033055Y016779D01*
X033055Y016629D01*
X033130Y016554D01*
X033430Y016554D01*
X033505Y017475D02*
X033205Y017775D01*
X033130Y017775D01*
X033055Y017700D01*
X033055Y017550D01*
X033130Y017475D01*
X033505Y017475D02*
X033505Y017775D01*
X036512Y013128D02*
X036737Y013128D01*
X036813Y013053D01*
X036813Y012752D01*
X036737Y012677D01*
X036512Y012677D01*
X036512Y013128D01*
X036973Y013053D02*
X036973Y012978D01*
X037048Y012902D01*
X037198Y012902D01*
X037273Y012827D01*
X037273Y012752D01*
X037198Y012677D01*
X037048Y012677D01*
X036973Y012752D01*
X036973Y013053D02*
X037048Y013128D01*
X037198Y013128D01*
X037273Y013053D01*
X037433Y012978D02*
X037583Y013128D01*
X037583Y012677D01*
X037433Y012677D02*
X037733Y012677D01*
X037893Y012752D02*
X037893Y012827D01*
X037968Y012902D01*
X038119Y012902D01*
X038194Y012827D01*
X038194Y012752D01*
X038119Y012677D01*
X037968Y012677D01*
X037893Y012752D01*
X037968Y012902D02*
X037893Y012978D01*
X037893Y013053D01*
X037968Y013128D01*
X038119Y013128D01*
X038194Y013053D01*
X038194Y012978D01*
X038119Y012902D01*
X038354Y012902D02*
X038579Y012902D01*
X038654Y012827D01*
X038654Y012752D01*
X038579Y012677D01*
X038354Y012677D01*
X038354Y013128D01*
X038579Y013128D01*
X038654Y013053D01*
X038654Y012978D01*
X038579Y012902D01*
X038814Y013053D02*
X038889Y013128D01*
X039039Y013128D01*
X039114Y013053D01*
X039114Y012978D01*
X038814Y012677D01*
X039114Y012677D01*
X039275Y012752D02*
X039575Y013053D01*
X039575Y012752D01*
X039500Y012677D01*
X039350Y012677D01*
X039275Y012752D01*
X039275Y013053D01*
X039350Y013128D01*
X039500Y013128D01*
X039575Y013053D01*
X039295Y011598D02*
X039160Y011462D01*
X039341Y011462D01*
X039295Y011327D02*
X039295Y011598D01*
X039046Y011552D02*
X039046Y011462D01*
X039001Y011417D01*
X038866Y011417D01*
X038866Y011327D02*
X038866Y011598D01*
X039001Y011598D01*
X039046Y011552D01*
X038956Y011417D02*
X039046Y011327D01*
X037321Y009068D02*
X037171Y009068D01*
X037096Y008993D01*
X037096Y008692D01*
X037171Y008617D01*
X037321Y008617D01*
X037396Y008692D01*
X037396Y008993D02*
X037321Y009068D01*
X036936Y009068D02*
X036635Y009068D01*
X036786Y009068D02*
X036786Y008617D01*
X036475Y008617D02*
X036325Y008767D01*
X036400Y008767D02*
X036175Y008767D01*
X036175Y008617D02*
X036175Y009068D01*
X036400Y009068D01*
X036475Y008993D01*
X036475Y008842D01*
X036400Y008767D01*
X044205Y004498D02*
X044430Y004498D01*
X044505Y004423D01*
X044505Y004272D01*
X044430Y004197D01*
X044205Y004197D01*
X044205Y004047D02*
X044205Y004498D01*
X044665Y004498D02*
X044665Y004047D01*
X044816Y004197D01*
X044966Y004047D01*
X044966Y004498D01*
X045126Y004498D02*
X045351Y004498D01*
X045426Y004423D01*
X045426Y004272D01*
X045351Y004197D01*
X045126Y004197D01*
X045126Y004047D02*
X045126Y004498D01*
X045276Y004197D02*
X045426Y004047D01*
X043855Y003598D02*
X043855Y003147D01*
X043705Y003147D02*
X044005Y003147D01*
X043705Y003448D02*
X043855Y003598D01*
X045455Y009647D02*
X045455Y009918D01*
X045590Y009918D01*
X045635Y009872D01*
X045635Y009782D01*
X045590Y009737D01*
X045455Y009737D01*
X045545Y009737D02*
X045635Y009647D01*
X045750Y009692D02*
X045750Y009737D01*
X045795Y009782D01*
X045885Y009782D01*
X045930Y009737D01*
X045930Y009692D01*
X045885Y009647D01*
X045795Y009647D01*
X045750Y009692D01*
X045795Y009782D02*
X045750Y009827D01*
X045750Y009872D01*
X045795Y009918D01*
X045885Y009918D01*
X045930Y009872D01*
X045930Y009827D01*
X045885Y009782D01*
X045885Y011147D02*
X045930Y011192D01*
X045930Y011372D01*
X045885Y011418D01*
X045795Y011418D01*
X045750Y011372D01*
X045750Y011327D01*
X045795Y011282D01*
X045930Y011282D01*
X045885Y011147D02*
X045795Y011147D01*
X045750Y011192D01*
X045635Y011147D02*
X045545Y011237D01*
X045590Y011237D02*
X045455Y011237D01*
X045455Y011147D02*
X045455Y011418D01*
X045590Y011418D01*
X045635Y011372D01*
X045635Y011282D01*
X045590Y011237D01*
X044005Y016247D02*
X044005Y016397D01*
X044005Y016322D02*
X043555Y016322D01*
X043555Y016247D02*
X043555Y016397D01*
X043630Y016554D02*
X043930Y016554D01*
X044005Y016629D01*
X044005Y016779D01*
X043930Y016854D01*
X044005Y017015D02*
X044005Y017315D01*
X044005Y017165D02*
X043555Y017165D01*
X043705Y017015D01*
X043630Y016854D02*
X043555Y016779D01*
X043555Y016629D01*
X043630Y016554D01*
X054055Y016629D02*
X054130Y016554D01*
X054430Y016554D01*
X054505Y016629D01*
X054505Y016779D01*
X054430Y016854D01*
X054505Y017015D02*
X054205Y017315D01*
X054130Y017315D01*
X054055Y017240D01*
X054055Y017090D01*
X054130Y017015D01*
X054130Y016854D02*
X054055Y016779D01*
X054055Y016629D01*
X054055Y016397D02*
X054055Y016247D01*
X054055Y016322D02*
X054505Y016322D01*
X054505Y016247D02*
X054505Y016397D01*
X054505Y017015D02*
X054505Y017315D01*
X054505Y022747D02*
X054505Y022897D01*
X054505Y022822D02*
X054055Y022822D01*
X054055Y022747D02*
X054055Y022897D01*
X054130Y023054D02*
X054430Y023054D01*
X054505Y023129D01*
X054505Y023279D01*
X054430Y023354D01*
X054430Y023515D02*
X054355Y023515D01*
X054280Y023590D01*
X054280Y023740D01*
X054355Y023815D01*
X054430Y023815D01*
X054505Y023740D01*
X054505Y023590D01*
X054430Y023515D01*
X054455Y023558D02*
X054455Y023693D01*
X054500Y023738D01*
X054590Y023738D01*
X054635Y023693D01*
X054635Y023558D01*
X054725Y023558D02*
X054455Y023558D01*
X054280Y023590D02*
X054205Y023515D01*
X054130Y023515D01*
X054055Y023590D01*
X054055Y023740D01*
X054130Y023815D01*
X054205Y023815D01*
X054280Y023740D01*
X054500Y023943D02*
X054590Y023853D01*
X054590Y023988D01*
X054635Y024033D01*
X054680Y024033D01*
X054725Y023988D01*
X054725Y023898D01*
X054680Y023853D01*
X054590Y023853D01*
X054500Y023943D02*
X054455Y024033D01*
X054725Y023738D02*
X054635Y023648D01*
X054130Y023354D02*
X054055Y023279D01*
X054055Y023129D01*
X054130Y023054D01*
X044225Y023558D02*
X043955Y023558D01*
X043955Y023693D01*
X044000Y023738D01*
X044090Y023738D01*
X044135Y023693D01*
X044135Y023558D01*
X044135Y023648D02*
X044225Y023738D01*
X044225Y023853D02*
X044045Y024033D01*
X044000Y024033D01*
X043955Y023988D01*
X043955Y023898D01*
X044000Y023853D01*
X044005Y023815D02*
X044005Y023515D01*
X044005Y023665D02*
X043555Y023665D01*
X043705Y023515D01*
X043630Y023354D02*
X043555Y023279D01*
X043555Y023129D01*
X043630Y023054D01*
X043930Y023054D01*
X044005Y023129D01*
X044005Y023279D01*
X043930Y023354D01*
X044005Y022897D02*
X044005Y022747D01*
X044005Y022822D02*
X043555Y022822D01*
X043555Y022747D02*
X043555Y022897D01*
X043705Y023975D02*
X043555Y024125D01*
X044005Y024125D01*
X044005Y023975D02*
X044005Y024275D01*
X044225Y024033D02*
X044225Y023853D01*
X033725Y023898D02*
X033680Y023853D01*
X033725Y023898D02*
X033725Y023988D01*
X033680Y024033D01*
X033635Y024033D01*
X033590Y023988D01*
X033590Y023943D01*
X033590Y023988D02*
X033545Y024033D01*
X033500Y024033D01*
X033455Y023988D01*
X033455Y023898D01*
X033500Y023853D01*
X033505Y023815D02*
X033505Y023515D01*
X033455Y023558D02*
X033455Y023693D01*
X033500Y023738D01*
X033590Y023738D01*
X033635Y023693D01*
X033635Y023558D01*
X033725Y023558D02*
X033455Y023558D01*
X033505Y023665D02*
X033055Y023665D01*
X033205Y023515D01*
X033130Y023354D02*
X033055Y023279D01*
X033055Y023129D01*
X033130Y023054D01*
X033430Y023054D01*
X033505Y023129D01*
X033505Y023279D01*
X033430Y023354D01*
X033635Y023648D02*
X033725Y023738D01*
X033430Y023975D02*
X033130Y023975D01*
X033055Y024050D01*
X033055Y024200D01*
X033130Y024275D01*
X033430Y023975D01*
X033505Y024050D01*
X033505Y024200D01*
X033430Y024275D01*
X033130Y024275D01*
X033055Y022897D02*
X033055Y022747D01*
X033055Y022822D02*
X033505Y022822D01*
X033505Y022747D02*
X033505Y022897D01*
X023225Y023558D02*
X022955Y023558D01*
X022955Y023693D01*
X023000Y023738D01*
X023090Y023738D01*
X023135Y023693D01*
X023135Y023558D01*
X023135Y023648D02*
X023225Y023738D01*
X023225Y023853D02*
X023180Y023853D01*
X023000Y024033D01*
X022955Y024033D01*
X022955Y023853D01*
X022630Y023815D02*
X022930Y023515D01*
X023005Y023515D01*
X022930Y023354D02*
X023005Y023279D01*
X023005Y023129D01*
X022930Y023054D01*
X022630Y023054D01*
X022555Y023129D01*
X022555Y023279D01*
X022630Y023354D01*
X022555Y023515D02*
X022555Y023815D01*
X022630Y023815D01*
X022555Y022897D02*
X022555Y022747D01*
X022555Y022822D02*
X023005Y022822D01*
X023005Y022747D02*
X023005Y022897D01*
X012725Y023558D02*
X012455Y023558D01*
X012455Y023693D01*
X012500Y023738D01*
X012590Y023738D01*
X012635Y023693D01*
X012635Y023558D01*
X012635Y023648D02*
X012725Y023738D01*
X012725Y023853D02*
X012725Y024033D01*
X012725Y023943D02*
X012455Y023943D01*
X012545Y023853D01*
X012505Y023740D02*
X012430Y023815D01*
X012355Y023815D01*
X012280Y023740D01*
X012280Y023515D01*
X012430Y023515D01*
X012505Y023590D01*
X012505Y023740D01*
X012280Y023515D02*
X012130Y023665D01*
X012055Y023815D01*
X012130Y023354D02*
X012055Y023279D01*
X012055Y023129D01*
X012130Y023054D01*
X012430Y023054D01*
X012505Y023129D01*
X012505Y023279D01*
X012430Y023354D01*
X012505Y022897D02*
X012505Y022747D01*
X012505Y022822D02*
X012055Y022822D01*
X012055Y022747D02*
X012055Y022897D01*
X002005Y022897D02*
X002005Y022747D01*
X002005Y022822D02*
X001555Y022822D01*
X001555Y022747D02*
X001555Y022897D01*
X001630Y023054D02*
X001930Y023054D01*
X002005Y023129D01*
X002005Y023279D01*
X001930Y023354D01*
X001930Y023515D02*
X002005Y023590D01*
X002005Y023740D01*
X001930Y023815D01*
X001630Y023815D01*
X001555Y023740D01*
X001555Y023590D01*
X001630Y023515D01*
X001705Y023515D01*
X001780Y023590D01*
X001780Y023815D01*
X001630Y023354D02*
X001555Y023279D01*
X001555Y023129D01*
X001630Y023054D01*
X060205Y012008D02*
X060355Y011858D01*
X060280Y011698D02*
X060205Y011622D01*
X060205Y011472D01*
X060280Y011397D01*
X060355Y011397D01*
X060430Y011472D01*
X060430Y011622D01*
X060505Y011698D01*
X060580Y011698D01*
X060655Y011622D01*
X060655Y011472D01*
X060580Y011397D01*
X060655Y011858D02*
X060655Y012158D01*
X060655Y012008D02*
X060205Y012008D01*
X060280Y008158D02*
X060205Y008083D01*
X060205Y007933D01*
X060280Y007858D01*
X060280Y007698D02*
X060205Y007622D01*
X060205Y007472D01*
X060280Y007397D01*
X060355Y007397D01*
X060430Y007472D01*
X060430Y007622D01*
X060505Y007698D01*
X060580Y007698D01*
X060655Y007622D01*
X060655Y007472D01*
X060580Y007397D01*
X060655Y007858D02*
X060355Y008158D01*
X060280Y008158D01*
X060655Y008158D02*
X060655Y007858D01*
X064455Y023558D02*
X064455Y023693D01*
X064500Y023738D01*
X064590Y023738D01*
X064635Y023693D01*
X064635Y023558D01*
X064725Y023558D02*
X064455Y023558D01*
X064635Y023648D02*
X064725Y023738D01*
X064680Y023853D02*
X064725Y023898D01*
X064725Y023988D01*
X064680Y024033D01*
X064590Y024033D01*
X064545Y023988D01*
X064545Y023943D01*
X064590Y023853D01*
X064455Y023853D01*
X064455Y024033D01*
D15*
X062680Y025022D02*
X062680Y022722D01*
X054680Y022722D01*
X054680Y023472D01*
X054719Y023474D01*
X054758Y023480D01*
X054796Y023489D01*
X054833Y023502D01*
X054869Y023519D01*
X054902Y023539D01*
X054934Y023563D01*
X054963Y023589D01*
X054989Y023618D01*
X055013Y023650D01*
X055033Y023683D01*
X055050Y023719D01*
X055063Y023756D01*
X055072Y023794D01*
X055078Y023833D01*
X055080Y023872D01*
X055078Y023911D01*
X055072Y023950D01*
X055063Y023988D01*
X055050Y024025D01*
X055033Y024061D01*
X055013Y024094D01*
X054989Y024126D01*
X054963Y024155D01*
X054934Y024181D01*
X054902Y024205D01*
X054869Y024225D01*
X054833Y024242D01*
X054796Y024255D01*
X054758Y024264D01*
X054719Y024270D01*
X054680Y024272D01*
X054680Y025022D01*
X062680Y025022D01*
X052180Y025022D02*
X052180Y022722D01*
X044180Y022722D01*
X044180Y023472D01*
X044219Y023474D01*
X044258Y023480D01*
X044296Y023489D01*
X044333Y023502D01*
X044369Y023519D01*
X044402Y023539D01*
X044434Y023563D01*
X044463Y023589D01*
X044489Y023618D01*
X044513Y023650D01*
X044533Y023683D01*
X044550Y023719D01*
X044563Y023756D01*
X044572Y023794D01*
X044578Y023833D01*
X044580Y023872D01*
X044578Y023911D01*
X044572Y023950D01*
X044563Y023988D01*
X044550Y024025D01*
X044533Y024061D01*
X044513Y024094D01*
X044489Y024126D01*
X044463Y024155D01*
X044434Y024181D01*
X044402Y024205D01*
X044369Y024225D01*
X044333Y024242D01*
X044296Y024255D01*
X044258Y024264D01*
X044219Y024270D01*
X044180Y024272D01*
X044180Y025022D01*
X052180Y025022D01*
X041680Y025022D02*
X041680Y022722D01*
X033680Y022722D01*
X033680Y023472D01*
X033719Y023474D01*
X033758Y023480D01*
X033796Y023489D01*
X033833Y023502D01*
X033869Y023519D01*
X033902Y023539D01*
X033934Y023563D01*
X033963Y023589D01*
X033989Y023618D01*
X034013Y023650D01*
X034033Y023683D01*
X034050Y023719D01*
X034063Y023756D01*
X034072Y023794D01*
X034078Y023833D01*
X034080Y023872D01*
X034078Y023911D01*
X034072Y023950D01*
X034063Y023988D01*
X034050Y024025D01*
X034033Y024061D01*
X034013Y024094D01*
X033989Y024126D01*
X033963Y024155D01*
X033934Y024181D01*
X033902Y024205D01*
X033869Y024225D01*
X033833Y024242D01*
X033796Y024255D01*
X033758Y024264D01*
X033719Y024270D01*
X033680Y024272D01*
X033680Y025022D01*
X041680Y025022D01*
X031180Y025022D02*
X031180Y022722D01*
X023180Y022722D01*
X023180Y023472D01*
X023219Y023474D01*
X023258Y023480D01*
X023296Y023489D01*
X023333Y023502D01*
X023369Y023519D01*
X023402Y023539D01*
X023434Y023563D01*
X023463Y023589D01*
X023489Y023618D01*
X023513Y023650D01*
X023533Y023683D01*
X023550Y023719D01*
X023563Y023756D01*
X023572Y023794D01*
X023578Y023833D01*
X023580Y023872D01*
X023578Y023911D01*
X023572Y023950D01*
X023563Y023988D01*
X023550Y024025D01*
X023533Y024061D01*
X023513Y024094D01*
X023489Y024126D01*
X023463Y024155D01*
X023434Y024181D01*
X023402Y024205D01*
X023369Y024225D01*
X023333Y024242D01*
X023296Y024255D01*
X023258Y024264D01*
X023219Y024270D01*
X023180Y024272D01*
X023180Y025022D01*
X031180Y025022D01*
X020680Y025022D02*
X020680Y022722D01*
X012680Y022722D01*
X012680Y023472D01*
X012719Y023474D01*
X012758Y023480D01*
X012796Y023489D01*
X012833Y023502D01*
X012869Y023519D01*
X012902Y023539D01*
X012934Y023563D01*
X012963Y023589D01*
X012989Y023618D01*
X013013Y023650D01*
X013033Y023683D01*
X013050Y023719D01*
X013063Y023756D01*
X013072Y023794D01*
X013078Y023833D01*
X013080Y023872D01*
X013078Y023911D01*
X013072Y023950D01*
X013063Y023988D01*
X013050Y024025D01*
X013033Y024061D01*
X013013Y024094D01*
X012989Y024126D01*
X012963Y024155D01*
X012934Y024181D01*
X012902Y024205D01*
X012869Y024225D01*
X012833Y024242D01*
X012796Y024255D01*
X012758Y024264D01*
X012719Y024270D01*
X012680Y024272D01*
X012680Y025022D01*
X020680Y025022D01*
X010180Y025022D02*
X010180Y022722D01*
X002180Y022722D01*
X002180Y023472D01*
X002219Y023474D01*
X002258Y023480D01*
X002296Y023489D01*
X002333Y023502D01*
X002369Y023519D01*
X002402Y023539D01*
X002434Y023563D01*
X002463Y023589D01*
X002489Y023618D01*
X002513Y023650D01*
X002533Y023683D01*
X002550Y023719D01*
X002563Y023756D01*
X002572Y023794D01*
X002578Y023833D01*
X002580Y023872D01*
X002578Y023911D01*
X002572Y023950D01*
X002563Y023988D01*
X002550Y024025D01*
X002533Y024061D01*
X002513Y024094D01*
X002489Y024126D01*
X002463Y024155D01*
X002434Y024181D01*
X002402Y024205D01*
X002369Y024225D01*
X002333Y024242D01*
X002296Y024255D01*
X002258Y024264D01*
X002219Y024270D01*
X002180Y024272D01*
X002180Y025022D01*
X010180Y025022D01*
X008730Y019122D02*
X004630Y019122D01*
X004630Y018372D01*
X004980Y018372D01*
X004980Y017772D01*
X004630Y017772D01*
X004630Y012872D01*
X008730Y012872D01*
X008730Y017772D01*
X008380Y017772D01*
X008380Y018372D01*
X008730Y018372D01*
X008730Y019122D01*
X005970Y017772D02*
X005972Y017825D01*
X005978Y017878D01*
X005988Y017930D01*
X006002Y017981D01*
X006019Y018031D01*
X006040Y018080D01*
X006065Y018127D01*
X006093Y018172D01*
X006125Y018215D01*
X006160Y018255D01*
X006197Y018292D01*
X006237Y018327D01*
X006280Y018359D01*
X006325Y018387D01*
X006372Y018412D01*
X006421Y018433D01*
X006471Y018450D01*
X006522Y018464D01*
X006574Y018474D01*
X006627Y018480D01*
X006680Y018482D01*
X006733Y018480D01*
X006786Y018474D01*
X006838Y018464D01*
X006889Y018450D01*
X006939Y018433D01*
X006988Y018412D01*
X007035Y018387D01*
X007080Y018359D01*
X007123Y018327D01*
X007163Y018292D01*
X007200Y018255D01*
X007235Y018215D01*
X007267Y018172D01*
X007295Y018127D01*
X007320Y018080D01*
X007341Y018031D01*
X007358Y017981D01*
X007372Y017930D01*
X007382Y017878D01*
X007388Y017825D01*
X007390Y017772D01*
X007388Y017719D01*
X007382Y017666D01*
X007372Y017614D01*
X007358Y017563D01*
X007341Y017513D01*
X007320Y017464D01*
X007295Y017417D01*
X007267Y017372D01*
X007235Y017329D01*
X007200Y017289D01*
X007163Y017252D01*
X007123Y017217D01*
X007080Y017185D01*
X007035Y017157D01*
X006988Y017132D01*
X006939Y017111D01*
X006889Y017094D01*
X006838Y017080D01*
X006786Y017070D01*
X006733Y017064D01*
X006680Y017062D01*
X006627Y017064D01*
X006574Y017070D01*
X006522Y017080D01*
X006471Y017094D01*
X006421Y017111D01*
X006372Y017132D01*
X006325Y017157D01*
X006280Y017185D01*
X006237Y017217D01*
X006197Y017252D01*
X006160Y017289D01*
X006125Y017329D01*
X006093Y017372D01*
X006065Y017417D01*
X006040Y017464D01*
X006019Y017513D01*
X006002Y017563D01*
X005988Y017614D01*
X005978Y017666D01*
X005972Y017719D01*
X005970Y017772D01*
X000830Y003872D02*
X000832Y003945D01*
X000838Y004018D01*
X000848Y004090D01*
X000862Y004162D01*
X000879Y004233D01*
X000901Y004303D01*
X000926Y004372D01*
X000955Y004439D01*
X000987Y004504D01*
X001023Y004568D01*
X001063Y004630D01*
X001105Y004689D01*
X001151Y004746D01*
X001200Y004800D01*
X001252Y004852D01*
X001306Y004901D01*
X001363Y004947D01*
X001422Y004989D01*
X001484Y005029D01*
X001548Y005065D01*
X001613Y005097D01*
X001680Y005126D01*
X001749Y005151D01*
X001819Y005173D01*
X001890Y005190D01*
X001962Y005204D01*
X002034Y005214D01*
X002107Y005220D01*
X002180Y005222D01*
X002253Y005220D01*
X002326Y005214D01*
X002398Y005204D01*
X002470Y005190D01*
X002541Y005173D01*
X002611Y005151D01*
X002680Y005126D01*
X002747Y005097D01*
X002812Y005065D01*
X002876Y005029D01*
X002938Y004989D01*
X002997Y004947D01*
X003054Y004901D01*
X003108Y004852D01*
X003160Y004800D01*
X003209Y004746D01*
X003255Y004689D01*
X003297Y004630D01*
X003337Y004568D01*
X003373Y004504D01*
X003405Y004439D01*
X003434Y004372D01*
X003459Y004303D01*
X003481Y004233D01*
X003498Y004162D01*
X003512Y004090D01*
X003522Y004018D01*
X003528Y003945D01*
X003530Y003872D01*
X003528Y003799D01*
X003522Y003726D01*
X003512Y003654D01*
X003498Y003582D01*
X003481Y003511D01*
X003459Y003441D01*
X003434Y003372D01*
X003405Y003305D01*
X003373Y003240D01*
X003337Y003176D01*
X003297Y003114D01*
X003255Y003055D01*
X003209Y002998D01*
X003160Y002944D01*
X003108Y002892D01*
X003054Y002843D01*
X002997Y002797D01*
X002938Y002755D01*
X002876Y002715D01*
X002812Y002679D01*
X002747Y002647D01*
X002680Y002618D01*
X002611Y002593D01*
X002541Y002571D01*
X002470Y002554D01*
X002398Y002540D01*
X002326Y002530D01*
X002253Y002524D01*
X002180Y002522D01*
X002107Y002524D01*
X002034Y002530D01*
X001962Y002540D01*
X001890Y002554D01*
X001819Y002571D01*
X001749Y002593D01*
X001680Y002618D01*
X001613Y002647D01*
X001548Y002679D01*
X001484Y002715D01*
X001422Y002755D01*
X001363Y002797D01*
X001306Y002843D01*
X001252Y002892D01*
X001200Y002944D01*
X001151Y002998D01*
X001105Y003055D01*
X001063Y003114D01*
X001023Y003176D01*
X000987Y003240D01*
X000955Y003305D01*
X000926Y003372D01*
X000901Y003441D01*
X000879Y003511D01*
X000862Y003582D01*
X000848Y003654D01*
X000838Y003726D01*
X000832Y003799D01*
X000830Y003872D01*
X044180Y003622D02*
X044180Y003122D01*
X044430Y002872D01*
X044930Y002872D01*
X045180Y003122D01*
X045430Y002872D01*
X045930Y002872D01*
X046180Y003122D01*
X046430Y002872D01*
X046930Y002872D01*
X047180Y003122D01*
X047180Y003622D01*
X046930Y003872D01*
X046430Y003872D01*
X046180Y003622D01*
X045930Y003872D01*
X045430Y003872D01*
X045180Y003622D01*
X044930Y003872D01*
X044430Y003872D01*
X044180Y003622D01*
X061330Y003872D02*
X061332Y003945D01*
X061338Y004018D01*
X061348Y004090D01*
X061362Y004162D01*
X061379Y004233D01*
X061401Y004303D01*
X061426Y004372D01*
X061455Y004439D01*
X061487Y004504D01*
X061523Y004568D01*
X061563Y004630D01*
X061605Y004689D01*
X061651Y004746D01*
X061700Y004800D01*
X061752Y004852D01*
X061806Y004901D01*
X061863Y004947D01*
X061922Y004989D01*
X061984Y005029D01*
X062048Y005065D01*
X062113Y005097D01*
X062180Y005126D01*
X062249Y005151D01*
X062319Y005173D01*
X062390Y005190D01*
X062462Y005204D01*
X062534Y005214D01*
X062607Y005220D01*
X062680Y005222D01*
X062753Y005220D01*
X062826Y005214D01*
X062898Y005204D01*
X062970Y005190D01*
X063041Y005173D01*
X063111Y005151D01*
X063180Y005126D01*
X063247Y005097D01*
X063312Y005065D01*
X063376Y005029D01*
X063438Y004989D01*
X063497Y004947D01*
X063554Y004901D01*
X063608Y004852D01*
X063660Y004800D01*
X063709Y004746D01*
X063755Y004689D01*
X063797Y004630D01*
X063837Y004568D01*
X063873Y004504D01*
X063905Y004439D01*
X063934Y004372D01*
X063959Y004303D01*
X063981Y004233D01*
X063998Y004162D01*
X064012Y004090D01*
X064022Y004018D01*
X064028Y003945D01*
X064030Y003872D01*
X064028Y003799D01*
X064022Y003726D01*
X064012Y003654D01*
X063998Y003582D01*
X063981Y003511D01*
X063959Y003441D01*
X063934Y003372D01*
X063905Y003305D01*
X063873Y003240D01*
X063837Y003176D01*
X063797Y003114D01*
X063755Y003055D01*
X063709Y002998D01*
X063660Y002944D01*
X063608Y002892D01*
X063554Y002843D01*
X063497Y002797D01*
X063438Y002755D01*
X063376Y002715D01*
X063312Y002679D01*
X063247Y002647D01*
X063180Y002618D01*
X063111Y002593D01*
X063041Y002571D01*
X062970Y002554D01*
X062898Y002540D01*
X062826Y002530D01*
X062753Y002524D01*
X062680Y002522D01*
X062607Y002524D01*
X062534Y002530D01*
X062462Y002540D01*
X062390Y002554D01*
X062319Y002571D01*
X062249Y002593D01*
X062180Y002618D01*
X062113Y002647D01*
X062048Y002679D01*
X061984Y002715D01*
X061922Y002755D01*
X061863Y002797D01*
X061806Y002843D01*
X061752Y002892D01*
X061700Y002944D01*
X061651Y002998D01*
X061605Y003055D01*
X061563Y003114D01*
X061523Y003176D01*
X061487Y003240D01*
X061455Y003305D01*
X061426Y003372D01*
X061401Y003441D01*
X061379Y003511D01*
X061362Y003582D01*
X061348Y003654D01*
X061338Y003726D01*
X061332Y003799D01*
X061330Y003872D01*
X061330Y033872D02*
X061332Y033945D01*
X061338Y034018D01*
X061348Y034090D01*
X061362Y034162D01*
X061379Y034233D01*
X061401Y034303D01*
X061426Y034372D01*
X061455Y034439D01*
X061487Y034504D01*
X061523Y034568D01*
X061563Y034630D01*
X061605Y034689D01*
X061651Y034746D01*
X061700Y034800D01*
X061752Y034852D01*
X061806Y034901D01*
X061863Y034947D01*
X061922Y034989D01*
X061984Y035029D01*
X062048Y035065D01*
X062113Y035097D01*
X062180Y035126D01*
X062249Y035151D01*
X062319Y035173D01*
X062390Y035190D01*
X062462Y035204D01*
X062534Y035214D01*
X062607Y035220D01*
X062680Y035222D01*
X062753Y035220D01*
X062826Y035214D01*
X062898Y035204D01*
X062970Y035190D01*
X063041Y035173D01*
X063111Y035151D01*
X063180Y035126D01*
X063247Y035097D01*
X063312Y035065D01*
X063376Y035029D01*
X063438Y034989D01*
X063497Y034947D01*
X063554Y034901D01*
X063608Y034852D01*
X063660Y034800D01*
X063709Y034746D01*
X063755Y034689D01*
X063797Y034630D01*
X063837Y034568D01*
X063873Y034504D01*
X063905Y034439D01*
X063934Y034372D01*
X063959Y034303D01*
X063981Y034233D01*
X063998Y034162D01*
X064012Y034090D01*
X064022Y034018D01*
X064028Y033945D01*
X064030Y033872D01*
X064028Y033799D01*
X064022Y033726D01*
X064012Y033654D01*
X063998Y033582D01*
X063981Y033511D01*
X063959Y033441D01*
X063934Y033372D01*
X063905Y033305D01*
X063873Y033240D01*
X063837Y033176D01*
X063797Y033114D01*
X063755Y033055D01*
X063709Y032998D01*
X063660Y032944D01*
X063608Y032892D01*
X063554Y032843D01*
X063497Y032797D01*
X063438Y032755D01*
X063376Y032715D01*
X063312Y032679D01*
X063247Y032647D01*
X063180Y032618D01*
X063111Y032593D01*
X063041Y032571D01*
X062970Y032554D01*
X062898Y032540D01*
X062826Y032530D01*
X062753Y032524D01*
X062680Y032522D01*
X062607Y032524D01*
X062534Y032530D01*
X062462Y032540D01*
X062390Y032554D01*
X062319Y032571D01*
X062249Y032593D01*
X062180Y032618D01*
X062113Y032647D01*
X062048Y032679D01*
X061984Y032715D01*
X061922Y032755D01*
X061863Y032797D01*
X061806Y032843D01*
X061752Y032892D01*
X061700Y032944D01*
X061651Y032998D01*
X061605Y033055D01*
X061563Y033114D01*
X061523Y033176D01*
X061487Y033240D01*
X061455Y033305D01*
X061426Y033372D01*
X061401Y033441D01*
X061379Y033511D01*
X061362Y033582D01*
X061348Y033654D01*
X061338Y033726D01*
X061332Y033799D01*
X061330Y033872D01*
X000830Y033872D02*
X000832Y033945D01*
X000838Y034018D01*
X000848Y034090D01*
X000862Y034162D01*
X000879Y034233D01*
X000901Y034303D01*
X000926Y034372D01*
X000955Y034439D01*
X000987Y034504D01*
X001023Y034568D01*
X001063Y034630D01*
X001105Y034689D01*
X001151Y034746D01*
X001200Y034800D01*
X001252Y034852D01*
X001306Y034901D01*
X001363Y034947D01*
X001422Y034989D01*
X001484Y035029D01*
X001548Y035065D01*
X001613Y035097D01*
X001680Y035126D01*
X001749Y035151D01*
X001819Y035173D01*
X001890Y035190D01*
X001962Y035204D01*
X002034Y035214D01*
X002107Y035220D01*
X002180Y035222D01*
X002253Y035220D01*
X002326Y035214D01*
X002398Y035204D01*
X002470Y035190D01*
X002541Y035173D01*
X002611Y035151D01*
X002680Y035126D01*
X002747Y035097D01*
X002812Y035065D01*
X002876Y035029D01*
X002938Y034989D01*
X002997Y034947D01*
X003054Y034901D01*
X003108Y034852D01*
X003160Y034800D01*
X003209Y034746D01*
X003255Y034689D01*
X003297Y034630D01*
X003337Y034568D01*
X003373Y034504D01*
X003405Y034439D01*
X003434Y034372D01*
X003459Y034303D01*
X003481Y034233D01*
X003498Y034162D01*
X003512Y034090D01*
X003522Y034018D01*
X003528Y033945D01*
X003530Y033872D01*
X003528Y033799D01*
X003522Y033726D01*
X003512Y033654D01*
X003498Y033582D01*
X003481Y033511D01*
X003459Y033441D01*
X003434Y033372D01*
X003405Y033305D01*
X003373Y033240D01*
X003337Y033176D01*
X003297Y033114D01*
X003255Y033055D01*
X003209Y032998D01*
X003160Y032944D01*
X003108Y032892D01*
X003054Y032843D01*
X002997Y032797D01*
X002938Y032755D01*
X002876Y032715D01*
X002812Y032679D01*
X002747Y032647D01*
X002680Y032618D01*
X002611Y032593D01*
X002541Y032571D01*
X002470Y032554D01*
X002398Y032540D01*
X002326Y032530D01*
X002253Y032524D01*
X002180Y032522D01*
X002107Y032524D01*
X002034Y032530D01*
X001962Y032540D01*
X001890Y032554D01*
X001819Y032571D01*
X001749Y032593D01*
X001680Y032618D01*
X001613Y032647D01*
X001548Y032679D01*
X001484Y032715D01*
X001422Y032755D01*
X001363Y032797D01*
X001306Y032843D01*
X001252Y032892D01*
X001200Y032944D01*
X001151Y032998D01*
X001105Y033055D01*
X001063Y033114D01*
X001023Y033176D01*
X000987Y033240D01*
X000955Y033305D01*
X000926Y033372D01*
X000901Y033441D01*
X000879Y033511D01*
X000862Y033582D01*
X000848Y033654D01*
X000838Y033726D01*
X000832Y033799D01*
X000830Y033872D01*
D16*
X033680Y018522D02*
X033680Y017772D01*
X033719Y017770D01*
X033758Y017764D01*
X033796Y017755D01*
X033833Y017742D01*
X033869Y017725D01*
X033902Y017705D01*
X033934Y017681D01*
X033963Y017655D01*
X033989Y017626D01*
X034013Y017594D01*
X034033Y017561D01*
X034050Y017525D01*
X034063Y017488D01*
X034072Y017450D01*
X034078Y017411D01*
X034080Y017372D01*
X034078Y017333D01*
X034072Y017294D01*
X034063Y017256D01*
X034050Y017219D01*
X034033Y017183D01*
X034013Y017150D01*
X033989Y017118D01*
X033963Y017089D01*
X033934Y017063D01*
X033902Y017039D01*
X033869Y017019D01*
X033833Y017002D01*
X033796Y016989D01*
X033758Y016980D01*
X033719Y016974D01*
X033680Y016972D01*
X033680Y016222D01*
X041680Y016222D01*
X041680Y018522D01*
X033680Y018522D01*
X044180Y018522D02*
X044180Y017772D01*
X044219Y017770D01*
X044258Y017764D01*
X044296Y017755D01*
X044333Y017742D01*
X044369Y017725D01*
X044402Y017705D01*
X044434Y017681D01*
X044463Y017655D01*
X044489Y017626D01*
X044513Y017594D01*
X044533Y017561D01*
X044550Y017525D01*
X044563Y017488D01*
X044572Y017450D01*
X044578Y017411D01*
X044580Y017372D01*
X044578Y017333D01*
X044572Y017294D01*
X044563Y017256D01*
X044550Y017219D01*
X044533Y017183D01*
X044513Y017150D01*
X044489Y017118D01*
X044463Y017089D01*
X044434Y017063D01*
X044402Y017039D01*
X044369Y017019D01*
X044333Y017002D01*
X044296Y016989D01*
X044258Y016980D01*
X044219Y016974D01*
X044180Y016972D01*
X044180Y016222D01*
X052180Y016222D01*
X052180Y018522D01*
X044180Y018522D01*
X054680Y018522D02*
X054680Y017772D01*
X054719Y017770D01*
X054758Y017764D01*
X054796Y017755D01*
X054833Y017742D01*
X054869Y017725D01*
X054902Y017705D01*
X054934Y017681D01*
X054963Y017655D01*
X054989Y017626D01*
X055013Y017594D01*
X055033Y017561D01*
X055050Y017525D01*
X055063Y017488D01*
X055072Y017450D01*
X055078Y017411D01*
X055080Y017372D01*
X055078Y017333D01*
X055072Y017294D01*
X055063Y017256D01*
X055050Y017219D01*
X055033Y017183D01*
X055013Y017150D01*
X054989Y017118D01*
X054963Y017089D01*
X054934Y017063D01*
X054902Y017039D01*
X054869Y017019D01*
X054833Y017002D01*
X054796Y016989D01*
X054758Y016980D01*
X054719Y016974D01*
X054680Y016972D01*
X054680Y016222D01*
X062680Y016222D01*
X062680Y018522D01*
X054680Y018522D01*
D17*
X008480Y016372D02*
X008480Y013122D01*
X004880Y013122D01*
X004880Y016372D01*
X008480Y016372D01*
D18*
X006710Y015933D02*
X006710Y015828D01*
X006605Y015723D01*
X006710Y015617D01*
X006710Y015512D01*
X006605Y015407D01*
X006394Y015407D01*
X006289Y015512D01*
X006065Y015512D02*
X005960Y015407D01*
X005750Y015407D01*
X005645Y015512D01*
X005645Y015933D01*
X005750Y016038D01*
X005960Y016038D01*
X006065Y015933D01*
X006289Y015933D02*
X006394Y016038D01*
X006605Y016038D01*
X006710Y015933D01*
X006605Y015723D02*
X006499Y015723D01*
X005425Y016038D02*
X005215Y016038D01*
X005320Y016038D02*
X005320Y015407D01*
X005215Y015407D02*
X005425Y015407D01*
X057715Y013933D02*
X057715Y013828D01*
X057820Y013723D01*
X058030Y013723D01*
X058135Y013617D01*
X058135Y013512D01*
X058030Y013407D01*
X057820Y013407D01*
X057715Y013512D01*
X057715Y013933D02*
X057820Y014038D01*
X058030Y014038D01*
X058135Y013933D01*
X058360Y013933D02*
X058465Y014038D01*
X058675Y014038D01*
X058780Y013933D01*
X058780Y013828D01*
X058675Y013723D01*
X058780Y013617D01*
X058780Y013512D01*
X058675Y013407D01*
X058465Y013407D01*
X058360Y013512D01*
X058570Y013723D02*
X058675Y013723D01*
D19*
X007680Y012697D03*
X006680Y012697D03*
X005680Y012697D03*
D20*
X007860Y009627D02*
X007835Y009602D01*
X007835Y009502D01*
X007860Y009477D01*
X007910Y009477D01*
X007935Y009502D01*
X007982Y009477D02*
X008082Y009577D01*
X008082Y009602D01*
X008057Y009627D01*
X008007Y009627D01*
X007982Y009602D01*
X007935Y009602D02*
X007910Y009627D01*
X007860Y009627D01*
X007982Y009477D02*
X008082Y009477D01*
X005438Y008267D02*
X005438Y008117D01*
X005388Y008117D02*
X005488Y008117D01*
X005388Y008217D02*
X005438Y008267D01*
X005340Y008242D02*
X005315Y008267D01*
X005265Y008267D01*
X005240Y008242D01*
X005240Y008142D01*
X005265Y008117D01*
X005315Y008117D01*
X005340Y008142D01*
D21*
X006605Y005652D02*
X007255Y005652D01*
X007255Y005455D02*
X006605Y005455D01*
X006605Y005652D01*
X006605Y005455D02*
X006605Y004864D01*
X009255Y004864D01*
X009105Y005455D02*
X009755Y005455D01*
X009755Y005652D01*
X009105Y005652D01*
X006605Y004864D02*
X006408Y004864D01*
X006408Y000140D01*
X006920Y000140D01*
X006920Y000534D01*
X006920Y000927D02*
X006920Y001321D01*
X006605Y001518D02*
X006408Y001518D01*
X006605Y001518D02*
X006605Y004864D01*
X006920Y003683D02*
X007156Y003683D01*
X006920Y003683D02*
X006920Y003290D01*
X006920Y002896D02*
X006920Y002502D01*
X006920Y002109D02*
X006920Y001715D01*
X006605Y001518D02*
X009952Y001518D01*
X009440Y001715D02*
X009440Y002109D01*
X009440Y002502D02*
X009440Y002896D01*
X009440Y003290D02*
X009440Y003683D01*
X009204Y003683D01*
X008810Y003683D02*
X008574Y003683D01*
X007786Y003683D01*
X007550Y003683D01*
X009952Y003364D02*
X009952Y000140D01*
X009440Y000140D01*
X009440Y000534D01*
X009440Y000927D02*
X009440Y001321D01*
X008574Y000927D02*
X008572Y000888D01*
X008566Y000850D01*
X008557Y000813D01*
X008544Y000776D01*
X008527Y000741D01*
X008508Y000708D01*
X008485Y000677D01*
X008459Y000648D01*
X008430Y000622D01*
X008399Y000599D01*
X008366Y000580D01*
X008331Y000563D01*
X008294Y000550D01*
X008257Y000541D01*
X008219Y000535D01*
X008180Y000533D01*
X008141Y000535D01*
X008103Y000541D01*
X008066Y000550D01*
X008029Y000563D01*
X007994Y000580D01*
X007961Y000599D01*
X007930Y000622D01*
X007901Y000648D01*
X007875Y000677D01*
X007852Y000708D01*
X007833Y000741D01*
X007816Y000776D01*
X007803Y000813D01*
X007794Y000850D01*
X007788Y000888D01*
X007786Y000927D01*
X006920Y000140D02*
X009440Y000140D01*
D22*
X010180Y030872D02*
X010177Y030981D01*
X010170Y031089D01*
X010159Y031196D01*
X010144Y031304D01*
X010125Y031410D01*
X010103Y031516D01*
X010077Y031621D01*
X010047Y031726D01*
X010013Y031828D01*
X009975Y031930D01*
X009934Y032030D01*
X009889Y032129D01*
X009841Y032226D01*
X009789Y032321D01*
X009734Y032414D01*
X009676Y032506D01*
X009614Y032595D01*
X009549Y032681D01*
X009481Y032766D01*
X009410Y032847D01*
X009336Y032927D01*
X009260Y033003D01*
X009180Y033077D01*
X009098Y033148D01*
X009014Y033215D01*
X008927Y033280D01*
X008838Y033341D01*
X008746Y033400D01*
X008653Y033455D01*
X008558Y033506D01*
X008460Y033554D01*
X008362Y033598D01*
X008261Y033639D01*
X008160Y033677D01*
X008057Y033710D01*
X007952Y033740D01*
X007847Y033766D01*
X007741Y033788D01*
X007634Y033806D01*
X007527Y033821D01*
X007419Y033831D01*
X007311Y033838D01*
X007203Y033841D01*
X007095Y033840D01*
X006986Y033835D01*
X006878Y033826D01*
X006771Y033813D01*
X006664Y033796D01*
X006557Y033776D01*
X006452Y033751D01*
X006347Y033723D01*
X006244Y033691D01*
X006142Y033656D01*
X006041Y033616D01*
X005941Y033573D01*
X005843Y033527D01*
X005747Y033477D01*
X005653Y033423D01*
X005561Y033366D01*
X005471Y033306D01*
X005383Y033243D01*
X005297Y033177D01*
X005214Y033107D01*
X005134Y033035D01*
X005056Y032959D01*
X004981Y032881D01*
X004908Y032801D01*
X004839Y032717D01*
X004773Y032632D01*
X004710Y032543D01*
X004650Y032453D01*
X004593Y032361D01*
X004540Y032266D01*
X004491Y032170D01*
X004444Y032072D01*
X004402Y031973D01*
X004363Y031872D01*
X004327Y031769D01*
X004296Y031666D01*
X004268Y031561D01*
X004244Y031455D01*
X004223Y031349D01*
X004207Y031242D01*
X004194Y031134D01*
X004186Y031026D01*
X004181Y030918D01*
X004180Y030810D01*
X003680Y030872D02*
X003682Y030990D01*
X003688Y031108D01*
X003698Y031226D01*
X003712Y031343D01*
X003730Y031460D01*
X003752Y031577D01*
X003777Y031692D01*
X003807Y031806D01*
X003841Y031920D01*
X003878Y032032D01*
X003919Y032143D01*
X003964Y032252D01*
X004012Y032360D01*
X004064Y032466D01*
X004120Y032571D01*
X004179Y032673D01*
X004241Y032773D01*
X004307Y032871D01*
X004376Y032967D01*
X004449Y033061D01*
X004524Y033152D01*
X004603Y033240D01*
X004684Y033326D01*
X004769Y033409D01*
X004856Y033489D01*
X004945Y033566D01*
X005038Y033640D01*
X005132Y033710D01*
X005229Y033778D01*
X005329Y033842D01*
X005430Y033903D01*
X005533Y033960D01*
X005639Y034014D01*
X005746Y034065D01*
X005854Y034111D01*
X005964Y034154D01*
X006076Y034193D01*
X006189Y034229D01*
X006303Y034260D01*
X006418Y034288D01*
X006533Y034312D01*
X006650Y034332D01*
X006767Y034348D01*
X006885Y034360D01*
X007003Y034368D01*
X007121Y034372D01*
X007239Y034372D01*
X007357Y034368D01*
X007475Y034360D01*
X007593Y034348D01*
X007710Y034332D01*
X007827Y034312D01*
X007942Y034288D01*
X008057Y034260D01*
X008171Y034229D01*
X008284Y034193D01*
X008396Y034154D01*
X008506Y034111D01*
X008614Y034065D01*
X008721Y034014D01*
X008827Y033960D01*
X008930Y033903D01*
X009031Y033842D01*
X009131Y033778D01*
X009228Y033710D01*
X009322Y033640D01*
X009415Y033566D01*
X009504Y033489D01*
X009591Y033409D01*
X009676Y033326D01*
X009757Y033240D01*
X009836Y033152D01*
X009911Y033061D01*
X009984Y032967D01*
X010053Y032871D01*
X010119Y032773D01*
X010181Y032673D01*
X010240Y032571D01*
X010296Y032466D01*
X010348Y032360D01*
X010396Y032252D01*
X010441Y032143D01*
X010482Y032032D01*
X010519Y031920D01*
X010553Y031806D01*
X010583Y031692D01*
X010608Y031577D01*
X010630Y031460D01*
X010648Y031343D01*
X010662Y031226D01*
X010672Y031108D01*
X010678Y030990D01*
X010680Y030872D01*
X010678Y030754D01*
X010672Y030636D01*
X010662Y030518D01*
X010648Y030401D01*
X010630Y030284D01*
X010608Y030167D01*
X010583Y030052D01*
X010553Y029938D01*
X010519Y029824D01*
X010482Y029712D01*
X010441Y029601D01*
X010396Y029492D01*
X010348Y029384D01*
X010296Y029278D01*
X010240Y029173D01*
X010181Y029071D01*
X010119Y028971D01*
X010053Y028873D01*
X009984Y028777D01*
X009911Y028683D01*
X009836Y028592D01*
X009757Y028504D01*
X009676Y028418D01*
X009591Y028335D01*
X009504Y028255D01*
X009415Y028178D01*
X009322Y028104D01*
X009228Y028034D01*
X009131Y027966D01*
X009031Y027902D01*
X008930Y027841D01*
X008827Y027784D01*
X008721Y027730D01*
X008614Y027679D01*
X008506Y027633D01*
X008396Y027590D01*
X008284Y027551D01*
X008171Y027515D01*
X008057Y027484D01*
X007942Y027456D01*
X007827Y027432D01*
X007710Y027412D01*
X007593Y027396D01*
X007475Y027384D01*
X007357Y027376D01*
X007239Y027372D01*
X007121Y027372D01*
X007003Y027376D01*
X006885Y027384D01*
X006767Y027396D01*
X006650Y027412D01*
X006533Y027432D01*
X006418Y027456D01*
X006303Y027484D01*
X006189Y027515D01*
X006076Y027551D01*
X005964Y027590D01*
X005854Y027633D01*
X005746Y027679D01*
X005639Y027730D01*
X005533Y027784D01*
X005430Y027841D01*
X005329Y027902D01*
X005229Y027966D01*
X005132Y028034D01*
X005038Y028104D01*
X004945Y028178D01*
X004856Y028255D01*
X004769Y028335D01*
X004684Y028418D01*
X004603Y028504D01*
X004524Y028592D01*
X004449Y028683D01*
X004376Y028777D01*
X004307Y028873D01*
X004241Y028971D01*
X004179Y029071D01*
X004120Y029173D01*
X004064Y029278D01*
X004012Y029384D01*
X003964Y029492D01*
X003919Y029601D01*
X003878Y029712D01*
X003841Y029824D01*
X003807Y029938D01*
X003777Y030052D01*
X003752Y030167D01*
X003730Y030284D01*
X003712Y030401D01*
X003698Y030518D01*
X003688Y030636D01*
X003682Y030754D01*
X003680Y030872D01*
X013180Y030872D02*
X013182Y030990D01*
X013188Y031108D01*
X013198Y031226D01*
X013212Y031343D01*
X013230Y031460D01*
X013252Y031577D01*
X013277Y031692D01*
X013307Y031806D01*
X013341Y031920D01*
X013378Y032032D01*
X013419Y032143D01*
X013464Y032252D01*
X013512Y032360D01*
X013564Y032466D01*
X013620Y032571D01*
X013679Y032673D01*
X013741Y032773D01*
X013807Y032871D01*
X013876Y032967D01*
X013949Y033061D01*
X014024Y033152D01*
X014103Y033240D01*
X014184Y033326D01*
X014269Y033409D01*
X014356Y033489D01*
X014445Y033566D01*
X014538Y033640D01*
X014632Y033710D01*
X014729Y033778D01*
X014829Y033842D01*
X014930Y033903D01*
X015033Y033960D01*
X015139Y034014D01*
X015246Y034065D01*
X015354Y034111D01*
X015464Y034154D01*
X015576Y034193D01*
X015689Y034229D01*
X015803Y034260D01*
X015918Y034288D01*
X016033Y034312D01*
X016150Y034332D01*
X016267Y034348D01*
X016385Y034360D01*
X016503Y034368D01*
X016621Y034372D01*
X016739Y034372D01*
X016857Y034368D01*
X016975Y034360D01*
X017093Y034348D01*
X017210Y034332D01*
X017327Y034312D01*
X017442Y034288D01*
X017557Y034260D01*
X017671Y034229D01*
X017784Y034193D01*
X017896Y034154D01*
X018006Y034111D01*
X018114Y034065D01*
X018221Y034014D01*
X018327Y033960D01*
X018430Y033903D01*
X018531Y033842D01*
X018631Y033778D01*
X018728Y033710D01*
X018822Y033640D01*
X018915Y033566D01*
X019004Y033489D01*
X019091Y033409D01*
X019176Y033326D01*
X019257Y033240D01*
X019336Y033152D01*
X019411Y033061D01*
X019484Y032967D01*
X019553Y032871D01*
X019619Y032773D01*
X019681Y032673D01*
X019740Y032571D01*
X019796Y032466D01*
X019848Y032360D01*
X019896Y032252D01*
X019941Y032143D01*
X019982Y032032D01*
X020019Y031920D01*
X020053Y031806D01*
X020083Y031692D01*
X020108Y031577D01*
X020130Y031460D01*
X020148Y031343D01*
X020162Y031226D01*
X020172Y031108D01*
X020178Y030990D01*
X020180Y030872D01*
X020178Y030754D01*
X020172Y030636D01*
X020162Y030518D01*
X020148Y030401D01*
X020130Y030284D01*
X020108Y030167D01*
X020083Y030052D01*
X020053Y029938D01*
X020019Y029824D01*
X019982Y029712D01*
X019941Y029601D01*
X019896Y029492D01*
X019848Y029384D01*
X019796Y029278D01*
X019740Y029173D01*
X019681Y029071D01*
X019619Y028971D01*
X019553Y028873D01*
X019484Y028777D01*
X019411Y028683D01*
X019336Y028592D01*
X019257Y028504D01*
X019176Y028418D01*
X019091Y028335D01*
X019004Y028255D01*
X018915Y028178D01*
X018822Y028104D01*
X018728Y028034D01*
X018631Y027966D01*
X018531Y027902D01*
X018430Y027841D01*
X018327Y027784D01*
X018221Y027730D01*
X018114Y027679D01*
X018006Y027633D01*
X017896Y027590D01*
X017784Y027551D01*
X017671Y027515D01*
X017557Y027484D01*
X017442Y027456D01*
X017327Y027432D01*
X017210Y027412D01*
X017093Y027396D01*
X016975Y027384D01*
X016857Y027376D01*
X016739Y027372D01*
X016621Y027372D01*
X016503Y027376D01*
X016385Y027384D01*
X016267Y027396D01*
X016150Y027412D01*
X016033Y027432D01*
X015918Y027456D01*
X015803Y027484D01*
X015689Y027515D01*
X015576Y027551D01*
X015464Y027590D01*
X015354Y027633D01*
X015246Y027679D01*
X015139Y027730D01*
X015033Y027784D01*
X014930Y027841D01*
X014829Y027902D01*
X014729Y027966D01*
X014632Y028034D01*
X014538Y028104D01*
X014445Y028178D01*
X014356Y028255D01*
X014269Y028335D01*
X014184Y028418D01*
X014103Y028504D01*
X014024Y028592D01*
X013949Y028683D01*
X013876Y028777D01*
X013807Y028873D01*
X013741Y028971D01*
X013679Y029071D01*
X013620Y029173D01*
X013564Y029278D01*
X013512Y029384D01*
X013464Y029492D01*
X013419Y029601D01*
X013378Y029712D01*
X013341Y029824D01*
X013307Y029938D01*
X013277Y030052D01*
X013252Y030167D01*
X013230Y030284D01*
X013212Y030401D01*
X013198Y030518D01*
X013188Y030636D01*
X013182Y030754D01*
X013180Y030872D01*
X013680Y030810D02*
X013681Y030918D01*
X013686Y031026D01*
X013694Y031134D01*
X013707Y031242D01*
X013723Y031349D01*
X013744Y031455D01*
X013768Y031561D01*
X013796Y031666D01*
X013827Y031769D01*
X013863Y031872D01*
X013902Y031973D01*
X013944Y032072D01*
X013991Y032170D01*
X014040Y032266D01*
X014093Y032361D01*
X014150Y032453D01*
X014210Y032543D01*
X014273Y032632D01*
X014339Y032717D01*
X014408Y032801D01*
X014481Y032881D01*
X014556Y032959D01*
X014634Y033035D01*
X014714Y033107D01*
X014797Y033177D01*
X014883Y033243D01*
X014971Y033306D01*
X015061Y033366D01*
X015153Y033423D01*
X015247Y033477D01*
X015343Y033527D01*
X015441Y033573D01*
X015541Y033616D01*
X015642Y033656D01*
X015744Y033691D01*
X015847Y033723D01*
X015952Y033751D01*
X016057Y033776D01*
X016164Y033796D01*
X016271Y033813D01*
X016378Y033826D01*
X016486Y033835D01*
X016595Y033840D01*
X016703Y033841D01*
X016811Y033838D01*
X016919Y033831D01*
X017027Y033821D01*
X017134Y033806D01*
X017241Y033788D01*
X017347Y033766D01*
X017452Y033740D01*
X017557Y033710D01*
X017660Y033677D01*
X017761Y033639D01*
X017862Y033598D01*
X017960Y033554D01*
X018058Y033506D01*
X018153Y033455D01*
X018246Y033400D01*
X018338Y033341D01*
X018427Y033280D01*
X018514Y033215D01*
X018598Y033148D01*
X018680Y033077D01*
X018760Y033003D01*
X018836Y032927D01*
X018910Y032847D01*
X018981Y032766D01*
X019049Y032681D01*
X019114Y032595D01*
X019176Y032506D01*
X019234Y032414D01*
X019289Y032321D01*
X019341Y032226D01*
X019389Y032129D01*
X019434Y032030D01*
X019475Y031930D01*
X019513Y031828D01*
X019547Y031726D01*
X019577Y031621D01*
X019603Y031516D01*
X019625Y031410D01*
X019644Y031304D01*
X019659Y031196D01*
X019670Y031089D01*
X019677Y030981D01*
X019680Y030872D01*
X024180Y030872D02*
X024182Y030990D01*
X024188Y031108D01*
X024198Y031226D01*
X024212Y031343D01*
X024230Y031460D01*
X024252Y031577D01*
X024277Y031692D01*
X024307Y031806D01*
X024341Y031920D01*
X024378Y032032D01*
X024419Y032143D01*
X024464Y032252D01*
X024512Y032360D01*
X024564Y032466D01*
X024620Y032571D01*
X024679Y032673D01*
X024741Y032773D01*
X024807Y032871D01*
X024876Y032967D01*
X024949Y033061D01*
X025024Y033152D01*
X025103Y033240D01*
X025184Y033326D01*
X025269Y033409D01*
X025356Y033489D01*
X025445Y033566D01*
X025538Y033640D01*
X025632Y033710D01*
X025729Y033778D01*
X025829Y033842D01*
X025930Y033903D01*
X026033Y033960D01*
X026139Y034014D01*
X026246Y034065D01*
X026354Y034111D01*
X026464Y034154D01*
X026576Y034193D01*
X026689Y034229D01*
X026803Y034260D01*
X026918Y034288D01*
X027033Y034312D01*
X027150Y034332D01*
X027267Y034348D01*
X027385Y034360D01*
X027503Y034368D01*
X027621Y034372D01*
X027739Y034372D01*
X027857Y034368D01*
X027975Y034360D01*
X028093Y034348D01*
X028210Y034332D01*
X028327Y034312D01*
X028442Y034288D01*
X028557Y034260D01*
X028671Y034229D01*
X028784Y034193D01*
X028896Y034154D01*
X029006Y034111D01*
X029114Y034065D01*
X029221Y034014D01*
X029327Y033960D01*
X029430Y033903D01*
X029531Y033842D01*
X029631Y033778D01*
X029728Y033710D01*
X029822Y033640D01*
X029915Y033566D01*
X030004Y033489D01*
X030091Y033409D01*
X030176Y033326D01*
X030257Y033240D01*
X030336Y033152D01*
X030411Y033061D01*
X030484Y032967D01*
X030553Y032871D01*
X030619Y032773D01*
X030681Y032673D01*
X030740Y032571D01*
X030796Y032466D01*
X030848Y032360D01*
X030896Y032252D01*
X030941Y032143D01*
X030982Y032032D01*
X031019Y031920D01*
X031053Y031806D01*
X031083Y031692D01*
X031108Y031577D01*
X031130Y031460D01*
X031148Y031343D01*
X031162Y031226D01*
X031172Y031108D01*
X031178Y030990D01*
X031180Y030872D01*
X031178Y030754D01*
X031172Y030636D01*
X031162Y030518D01*
X031148Y030401D01*
X031130Y030284D01*
X031108Y030167D01*
X031083Y030052D01*
X031053Y029938D01*
X031019Y029824D01*
X030982Y029712D01*
X030941Y029601D01*
X030896Y029492D01*
X030848Y029384D01*
X030796Y029278D01*
X030740Y029173D01*
X030681Y029071D01*
X030619Y028971D01*
X030553Y028873D01*
X030484Y028777D01*
X030411Y028683D01*
X030336Y028592D01*
X030257Y028504D01*
X030176Y028418D01*
X030091Y028335D01*
X030004Y028255D01*
X029915Y028178D01*
X029822Y028104D01*
X029728Y028034D01*
X029631Y027966D01*
X029531Y027902D01*
X029430Y027841D01*
X029327Y027784D01*
X029221Y027730D01*
X029114Y027679D01*
X029006Y027633D01*
X028896Y027590D01*
X028784Y027551D01*
X028671Y027515D01*
X028557Y027484D01*
X028442Y027456D01*
X028327Y027432D01*
X028210Y027412D01*
X028093Y027396D01*
X027975Y027384D01*
X027857Y027376D01*
X027739Y027372D01*
X027621Y027372D01*
X027503Y027376D01*
X027385Y027384D01*
X027267Y027396D01*
X027150Y027412D01*
X027033Y027432D01*
X026918Y027456D01*
X026803Y027484D01*
X026689Y027515D01*
X026576Y027551D01*
X026464Y027590D01*
X026354Y027633D01*
X026246Y027679D01*
X026139Y027730D01*
X026033Y027784D01*
X025930Y027841D01*
X025829Y027902D01*
X025729Y027966D01*
X025632Y028034D01*
X025538Y028104D01*
X025445Y028178D01*
X025356Y028255D01*
X025269Y028335D01*
X025184Y028418D01*
X025103Y028504D01*
X025024Y028592D01*
X024949Y028683D01*
X024876Y028777D01*
X024807Y028873D01*
X024741Y028971D01*
X024679Y029071D01*
X024620Y029173D01*
X024564Y029278D01*
X024512Y029384D01*
X024464Y029492D01*
X024419Y029601D01*
X024378Y029712D01*
X024341Y029824D01*
X024307Y029938D01*
X024277Y030052D01*
X024252Y030167D01*
X024230Y030284D01*
X024212Y030401D01*
X024198Y030518D01*
X024188Y030636D01*
X024182Y030754D01*
X024180Y030872D01*
X024680Y030810D02*
X024681Y030918D01*
X024686Y031026D01*
X024694Y031134D01*
X024707Y031242D01*
X024723Y031349D01*
X024744Y031455D01*
X024768Y031561D01*
X024796Y031666D01*
X024827Y031769D01*
X024863Y031872D01*
X024902Y031973D01*
X024944Y032072D01*
X024991Y032170D01*
X025040Y032266D01*
X025093Y032361D01*
X025150Y032453D01*
X025210Y032543D01*
X025273Y032632D01*
X025339Y032717D01*
X025408Y032801D01*
X025481Y032881D01*
X025556Y032959D01*
X025634Y033035D01*
X025714Y033107D01*
X025797Y033177D01*
X025883Y033243D01*
X025971Y033306D01*
X026061Y033366D01*
X026153Y033423D01*
X026247Y033477D01*
X026343Y033527D01*
X026441Y033573D01*
X026541Y033616D01*
X026642Y033656D01*
X026744Y033691D01*
X026847Y033723D01*
X026952Y033751D01*
X027057Y033776D01*
X027164Y033796D01*
X027271Y033813D01*
X027378Y033826D01*
X027486Y033835D01*
X027595Y033840D01*
X027703Y033841D01*
X027811Y033838D01*
X027919Y033831D01*
X028027Y033821D01*
X028134Y033806D01*
X028241Y033788D01*
X028347Y033766D01*
X028452Y033740D01*
X028557Y033710D01*
X028660Y033677D01*
X028761Y033639D01*
X028862Y033598D01*
X028960Y033554D01*
X029058Y033506D01*
X029153Y033455D01*
X029246Y033400D01*
X029338Y033341D01*
X029427Y033280D01*
X029514Y033215D01*
X029598Y033148D01*
X029680Y033077D01*
X029760Y033003D01*
X029836Y032927D01*
X029910Y032847D01*
X029981Y032766D01*
X030049Y032681D01*
X030114Y032595D01*
X030176Y032506D01*
X030234Y032414D01*
X030289Y032321D01*
X030341Y032226D01*
X030389Y032129D01*
X030434Y032030D01*
X030475Y031930D01*
X030513Y031828D01*
X030547Y031726D01*
X030577Y031621D01*
X030603Y031516D01*
X030625Y031410D01*
X030644Y031304D01*
X030659Y031196D01*
X030670Y031089D01*
X030677Y030981D01*
X030680Y030872D01*
X033680Y030872D02*
X033682Y030990D01*
X033688Y031108D01*
X033698Y031226D01*
X033712Y031343D01*
X033730Y031460D01*
X033752Y031577D01*
X033777Y031692D01*
X033807Y031806D01*
X033841Y031920D01*
X033878Y032032D01*
X033919Y032143D01*
X033964Y032252D01*
X034012Y032360D01*
X034064Y032466D01*
X034120Y032571D01*
X034179Y032673D01*
X034241Y032773D01*
X034307Y032871D01*
X034376Y032967D01*
X034449Y033061D01*
X034524Y033152D01*
X034603Y033240D01*
X034684Y033326D01*
X034769Y033409D01*
X034856Y033489D01*
X034945Y033566D01*
X035038Y033640D01*
X035132Y033710D01*
X035229Y033778D01*
X035329Y033842D01*
X035430Y033903D01*
X035533Y033960D01*
X035639Y034014D01*
X035746Y034065D01*
X035854Y034111D01*
X035964Y034154D01*
X036076Y034193D01*
X036189Y034229D01*
X036303Y034260D01*
X036418Y034288D01*
X036533Y034312D01*
X036650Y034332D01*
X036767Y034348D01*
X036885Y034360D01*
X037003Y034368D01*
X037121Y034372D01*
X037239Y034372D01*
X037357Y034368D01*
X037475Y034360D01*
X037593Y034348D01*
X037710Y034332D01*
X037827Y034312D01*
X037942Y034288D01*
X038057Y034260D01*
X038171Y034229D01*
X038284Y034193D01*
X038396Y034154D01*
X038506Y034111D01*
X038614Y034065D01*
X038721Y034014D01*
X038827Y033960D01*
X038930Y033903D01*
X039031Y033842D01*
X039131Y033778D01*
X039228Y033710D01*
X039322Y033640D01*
X039415Y033566D01*
X039504Y033489D01*
X039591Y033409D01*
X039676Y033326D01*
X039757Y033240D01*
X039836Y033152D01*
X039911Y033061D01*
X039984Y032967D01*
X040053Y032871D01*
X040119Y032773D01*
X040181Y032673D01*
X040240Y032571D01*
X040296Y032466D01*
X040348Y032360D01*
X040396Y032252D01*
X040441Y032143D01*
X040482Y032032D01*
X040519Y031920D01*
X040553Y031806D01*
X040583Y031692D01*
X040608Y031577D01*
X040630Y031460D01*
X040648Y031343D01*
X040662Y031226D01*
X040672Y031108D01*
X040678Y030990D01*
X040680Y030872D01*
X040678Y030754D01*
X040672Y030636D01*
X040662Y030518D01*
X040648Y030401D01*
X040630Y030284D01*
X040608Y030167D01*
X040583Y030052D01*
X040553Y029938D01*
X040519Y029824D01*
X040482Y029712D01*
X040441Y029601D01*
X040396Y029492D01*
X040348Y029384D01*
X040296Y029278D01*
X040240Y029173D01*
X040181Y029071D01*
X040119Y028971D01*
X040053Y028873D01*
X039984Y028777D01*
X039911Y028683D01*
X039836Y028592D01*
X039757Y028504D01*
X039676Y028418D01*
X039591Y028335D01*
X039504Y028255D01*
X039415Y028178D01*
X039322Y028104D01*
X039228Y028034D01*
X039131Y027966D01*
X039031Y027902D01*
X038930Y027841D01*
X038827Y027784D01*
X038721Y027730D01*
X038614Y027679D01*
X038506Y027633D01*
X038396Y027590D01*
X038284Y027551D01*
X038171Y027515D01*
X038057Y027484D01*
X037942Y027456D01*
X037827Y027432D01*
X037710Y027412D01*
X037593Y027396D01*
X037475Y027384D01*
X037357Y027376D01*
X037239Y027372D01*
X037121Y027372D01*
X037003Y027376D01*
X036885Y027384D01*
X036767Y027396D01*
X036650Y027412D01*
X036533Y027432D01*
X036418Y027456D01*
X036303Y027484D01*
X036189Y027515D01*
X036076Y027551D01*
X035964Y027590D01*
X035854Y027633D01*
X035746Y027679D01*
X035639Y027730D01*
X035533Y027784D01*
X035430Y027841D01*
X035329Y027902D01*
X035229Y027966D01*
X035132Y028034D01*
X035038Y028104D01*
X034945Y028178D01*
X034856Y028255D01*
X034769Y028335D01*
X034684Y028418D01*
X034603Y028504D01*
X034524Y028592D01*
X034449Y028683D01*
X034376Y028777D01*
X034307Y028873D01*
X034241Y028971D01*
X034179Y029071D01*
X034120Y029173D01*
X034064Y029278D01*
X034012Y029384D01*
X033964Y029492D01*
X033919Y029601D01*
X033878Y029712D01*
X033841Y029824D01*
X033807Y029938D01*
X033777Y030052D01*
X033752Y030167D01*
X033730Y030284D01*
X033712Y030401D01*
X033698Y030518D01*
X033688Y030636D01*
X033682Y030754D01*
X033680Y030872D01*
X034180Y030810D02*
X034181Y030918D01*
X034186Y031026D01*
X034194Y031134D01*
X034207Y031242D01*
X034223Y031349D01*
X034244Y031455D01*
X034268Y031561D01*
X034296Y031666D01*
X034327Y031769D01*
X034363Y031872D01*
X034402Y031973D01*
X034444Y032072D01*
X034491Y032170D01*
X034540Y032266D01*
X034593Y032361D01*
X034650Y032453D01*
X034710Y032543D01*
X034773Y032632D01*
X034839Y032717D01*
X034908Y032801D01*
X034981Y032881D01*
X035056Y032959D01*
X035134Y033035D01*
X035214Y033107D01*
X035297Y033177D01*
X035383Y033243D01*
X035471Y033306D01*
X035561Y033366D01*
X035653Y033423D01*
X035747Y033477D01*
X035843Y033527D01*
X035941Y033573D01*
X036041Y033616D01*
X036142Y033656D01*
X036244Y033691D01*
X036347Y033723D01*
X036452Y033751D01*
X036557Y033776D01*
X036664Y033796D01*
X036771Y033813D01*
X036878Y033826D01*
X036986Y033835D01*
X037095Y033840D01*
X037203Y033841D01*
X037311Y033838D01*
X037419Y033831D01*
X037527Y033821D01*
X037634Y033806D01*
X037741Y033788D01*
X037847Y033766D01*
X037952Y033740D01*
X038057Y033710D01*
X038160Y033677D01*
X038261Y033639D01*
X038362Y033598D01*
X038460Y033554D01*
X038558Y033506D01*
X038653Y033455D01*
X038746Y033400D01*
X038838Y033341D01*
X038927Y033280D01*
X039014Y033215D01*
X039098Y033148D01*
X039180Y033077D01*
X039260Y033003D01*
X039336Y032927D01*
X039410Y032847D01*
X039481Y032766D01*
X039549Y032681D01*
X039614Y032595D01*
X039676Y032506D01*
X039734Y032414D01*
X039789Y032321D01*
X039841Y032226D01*
X039889Y032129D01*
X039934Y032030D01*
X039975Y031930D01*
X040013Y031828D01*
X040047Y031726D01*
X040077Y031621D01*
X040103Y031516D01*
X040125Y031410D01*
X040144Y031304D01*
X040159Y031196D01*
X040170Y031089D01*
X040177Y030981D01*
X040180Y030872D01*
X044680Y030872D02*
X044682Y030990D01*
X044688Y031108D01*
X044698Y031226D01*
X044712Y031343D01*
X044730Y031460D01*
X044752Y031577D01*
X044777Y031692D01*
X044807Y031806D01*
X044841Y031920D01*
X044878Y032032D01*
X044919Y032143D01*
X044964Y032252D01*
X045012Y032360D01*
X045064Y032466D01*
X045120Y032571D01*
X045179Y032673D01*
X045241Y032773D01*
X045307Y032871D01*
X045376Y032967D01*
X045449Y033061D01*
X045524Y033152D01*
X045603Y033240D01*
X045684Y033326D01*
X045769Y033409D01*
X045856Y033489D01*
X045945Y033566D01*
X046038Y033640D01*
X046132Y033710D01*
X046229Y033778D01*
X046329Y033842D01*
X046430Y033903D01*
X046533Y033960D01*
X046639Y034014D01*
X046746Y034065D01*
X046854Y034111D01*
X046964Y034154D01*
X047076Y034193D01*
X047189Y034229D01*
X047303Y034260D01*
X047418Y034288D01*
X047533Y034312D01*
X047650Y034332D01*
X047767Y034348D01*
X047885Y034360D01*
X048003Y034368D01*
X048121Y034372D01*
X048239Y034372D01*
X048357Y034368D01*
X048475Y034360D01*
X048593Y034348D01*
X048710Y034332D01*
X048827Y034312D01*
X048942Y034288D01*
X049057Y034260D01*
X049171Y034229D01*
X049284Y034193D01*
X049396Y034154D01*
X049506Y034111D01*
X049614Y034065D01*
X049721Y034014D01*
X049827Y033960D01*
X049930Y033903D01*
X050031Y033842D01*
X050131Y033778D01*
X050228Y033710D01*
X050322Y033640D01*
X050415Y033566D01*
X050504Y033489D01*
X050591Y033409D01*
X050676Y033326D01*
X050757Y033240D01*
X050836Y033152D01*
X050911Y033061D01*
X050984Y032967D01*
X051053Y032871D01*
X051119Y032773D01*
X051181Y032673D01*
X051240Y032571D01*
X051296Y032466D01*
X051348Y032360D01*
X051396Y032252D01*
X051441Y032143D01*
X051482Y032032D01*
X051519Y031920D01*
X051553Y031806D01*
X051583Y031692D01*
X051608Y031577D01*
X051630Y031460D01*
X051648Y031343D01*
X051662Y031226D01*
X051672Y031108D01*
X051678Y030990D01*
X051680Y030872D01*
X051678Y030754D01*
X051672Y030636D01*
X051662Y030518D01*
X051648Y030401D01*
X051630Y030284D01*
X051608Y030167D01*
X051583Y030052D01*
X051553Y029938D01*
X051519Y029824D01*
X051482Y029712D01*
X051441Y029601D01*
X051396Y029492D01*
X051348Y029384D01*
X051296Y029278D01*
X051240Y029173D01*
X051181Y029071D01*
X051119Y028971D01*
X051053Y028873D01*
X050984Y028777D01*
X050911Y028683D01*
X050836Y028592D01*
X050757Y028504D01*
X050676Y028418D01*
X050591Y028335D01*
X050504Y028255D01*
X050415Y028178D01*
X050322Y028104D01*
X050228Y028034D01*
X050131Y027966D01*
X050031Y027902D01*
X049930Y027841D01*
X049827Y027784D01*
X049721Y027730D01*
X049614Y027679D01*
X049506Y027633D01*
X049396Y027590D01*
X049284Y027551D01*
X049171Y027515D01*
X049057Y027484D01*
X048942Y027456D01*
X048827Y027432D01*
X048710Y027412D01*
X048593Y027396D01*
X048475Y027384D01*
X048357Y027376D01*
X048239Y027372D01*
X048121Y027372D01*
X048003Y027376D01*
X047885Y027384D01*
X047767Y027396D01*
X047650Y027412D01*
X047533Y027432D01*
X047418Y027456D01*
X047303Y027484D01*
X047189Y027515D01*
X047076Y027551D01*
X046964Y027590D01*
X046854Y027633D01*
X046746Y027679D01*
X046639Y027730D01*
X046533Y027784D01*
X046430Y027841D01*
X046329Y027902D01*
X046229Y027966D01*
X046132Y028034D01*
X046038Y028104D01*
X045945Y028178D01*
X045856Y028255D01*
X045769Y028335D01*
X045684Y028418D01*
X045603Y028504D01*
X045524Y028592D01*
X045449Y028683D01*
X045376Y028777D01*
X045307Y028873D01*
X045241Y028971D01*
X045179Y029071D01*
X045120Y029173D01*
X045064Y029278D01*
X045012Y029384D01*
X044964Y029492D01*
X044919Y029601D01*
X044878Y029712D01*
X044841Y029824D01*
X044807Y029938D01*
X044777Y030052D01*
X044752Y030167D01*
X044730Y030284D01*
X044712Y030401D01*
X044698Y030518D01*
X044688Y030636D01*
X044682Y030754D01*
X044680Y030872D01*
X045180Y030810D02*
X045181Y030918D01*
X045186Y031026D01*
X045194Y031134D01*
X045207Y031242D01*
X045223Y031349D01*
X045244Y031455D01*
X045268Y031561D01*
X045296Y031666D01*
X045327Y031769D01*
X045363Y031872D01*
X045402Y031973D01*
X045444Y032072D01*
X045491Y032170D01*
X045540Y032266D01*
X045593Y032361D01*
X045650Y032453D01*
X045710Y032543D01*
X045773Y032632D01*
X045839Y032717D01*
X045908Y032801D01*
X045981Y032881D01*
X046056Y032959D01*
X046134Y033035D01*
X046214Y033107D01*
X046297Y033177D01*
X046383Y033243D01*
X046471Y033306D01*
X046561Y033366D01*
X046653Y033423D01*
X046747Y033477D01*
X046843Y033527D01*
X046941Y033573D01*
X047041Y033616D01*
X047142Y033656D01*
X047244Y033691D01*
X047347Y033723D01*
X047452Y033751D01*
X047557Y033776D01*
X047664Y033796D01*
X047771Y033813D01*
X047878Y033826D01*
X047986Y033835D01*
X048095Y033840D01*
X048203Y033841D01*
X048311Y033838D01*
X048419Y033831D01*
X048527Y033821D01*
X048634Y033806D01*
X048741Y033788D01*
X048847Y033766D01*
X048952Y033740D01*
X049057Y033710D01*
X049160Y033677D01*
X049261Y033639D01*
X049362Y033598D01*
X049460Y033554D01*
X049558Y033506D01*
X049653Y033455D01*
X049746Y033400D01*
X049838Y033341D01*
X049927Y033280D01*
X050014Y033215D01*
X050098Y033148D01*
X050180Y033077D01*
X050260Y033003D01*
X050336Y032927D01*
X050410Y032847D01*
X050481Y032766D01*
X050549Y032681D01*
X050614Y032595D01*
X050676Y032506D01*
X050734Y032414D01*
X050789Y032321D01*
X050841Y032226D01*
X050889Y032129D01*
X050934Y032030D01*
X050975Y031930D01*
X051013Y031828D01*
X051047Y031726D01*
X051077Y031621D01*
X051103Y031516D01*
X051125Y031410D01*
X051144Y031304D01*
X051159Y031196D01*
X051170Y031089D01*
X051177Y030981D01*
X051180Y030872D01*
X054180Y030872D02*
X054182Y030990D01*
X054188Y031108D01*
X054198Y031226D01*
X054212Y031343D01*
X054230Y031460D01*
X054252Y031577D01*
X054277Y031692D01*
X054307Y031806D01*
X054341Y031920D01*
X054378Y032032D01*
X054419Y032143D01*
X054464Y032252D01*
X054512Y032360D01*
X054564Y032466D01*
X054620Y032571D01*
X054679Y032673D01*
X054741Y032773D01*
X054807Y032871D01*
X054876Y032967D01*
X054949Y033061D01*
X055024Y033152D01*
X055103Y033240D01*
X055184Y033326D01*
X055269Y033409D01*
X055356Y033489D01*
X055445Y033566D01*
X055538Y033640D01*
X055632Y033710D01*
X055729Y033778D01*
X055829Y033842D01*
X055930Y033903D01*
X056033Y033960D01*
X056139Y034014D01*
X056246Y034065D01*
X056354Y034111D01*
X056464Y034154D01*
X056576Y034193D01*
X056689Y034229D01*
X056803Y034260D01*
X056918Y034288D01*
X057033Y034312D01*
X057150Y034332D01*
X057267Y034348D01*
X057385Y034360D01*
X057503Y034368D01*
X057621Y034372D01*
X057739Y034372D01*
X057857Y034368D01*
X057975Y034360D01*
X058093Y034348D01*
X058210Y034332D01*
X058327Y034312D01*
X058442Y034288D01*
X058557Y034260D01*
X058671Y034229D01*
X058784Y034193D01*
X058896Y034154D01*
X059006Y034111D01*
X059114Y034065D01*
X059221Y034014D01*
X059327Y033960D01*
X059430Y033903D01*
X059531Y033842D01*
X059631Y033778D01*
X059728Y033710D01*
X059822Y033640D01*
X059915Y033566D01*
X060004Y033489D01*
X060091Y033409D01*
X060176Y033326D01*
X060257Y033240D01*
X060336Y033152D01*
X060411Y033061D01*
X060484Y032967D01*
X060553Y032871D01*
X060619Y032773D01*
X060681Y032673D01*
X060740Y032571D01*
X060796Y032466D01*
X060848Y032360D01*
X060896Y032252D01*
X060941Y032143D01*
X060982Y032032D01*
X061019Y031920D01*
X061053Y031806D01*
X061083Y031692D01*
X061108Y031577D01*
X061130Y031460D01*
X061148Y031343D01*
X061162Y031226D01*
X061172Y031108D01*
X061178Y030990D01*
X061180Y030872D01*
X061178Y030754D01*
X061172Y030636D01*
X061162Y030518D01*
X061148Y030401D01*
X061130Y030284D01*
X061108Y030167D01*
X061083Y030052D01*
X061053Y029938D01*
X061019Y029824D01*
X060982Y029712D01*
X060941Y029601D01*
X060896Y029492D01*
X060848Y029384D01*
X060796Y029278D01*
X060740Y029173D01*
X060681Y029071D01*
X060619Y028971D01*
X060553Y028873D01*
X060484Y028777D01*
X060411Y028683D01*
X060336Y028592D01*
X060257Y028504D01*
X060176Y028418D01*
X060091Y028335D01*
X060004Y028255D01*
X059915Y028178D01*
X059822Y028104D01*
X059728Y028034D01*
X059631Y027966D01*
X059531Y027902D01*
X059430Y027841D01*
X059327Y027784D01*
X059221Y027730D01*
X059114Y027679D01*
X059006Y027633D01*
X058896Y027590D01*
X058784Y027551D01*
X058671Y027515D01*
X058557Y027484D01*
X058442Y027456D01*
X058327Y027432D01*
X058210Y027412D01*
X058093Y027396D01*
X057975Y027384D01*
X057857Y027376D01*
X057739Y027372D01*
X057621Y027372D01*
X057503Y027376D01*
X057385Y027384D01*
X057267Y027396D01*
X057150Y027412D01*
X057033Y027432D01*
X056918Y027456D01*
X056803Y027484D01*
X056689Y027515D01*
X056576Y027551D01*
X056464Y027590D01*
X056354Y027633D01*
X056246Y027679D01*
X056139Y027730D01*
X056033Y027784D01*
X055930Y027841D01*
X055829Y027902D01*
X055729Y027966D01*
X055632Y028034D01*
X055538Y028104D01*
X055445Y028178D01*
X055356Y028255D01*
X055269Y028335D01*
X055184Y028418D01*
X055103Y028504D01*
X055024Y028592D01*
X054949Y028683D01*
X054876Y028777D01*
X054807Y028873D01*
X054741Y028971D01*
X054679Y029071D01*
X054620Y029173D01*
X054564Y029278D01*
X054512Y029384D01*
X054464Y029492D01*
X054419Y029601D01*
X054378Y029712D01*
X054341Y029824D01*
X054307Y029938D01*
X054277Y030052D01*
X054252Y030167D01*
X054230Y030284D01*
X054212Y030401D01*
X054198Y030518D01*
X054188Y030636D01*
X054182Y030754D01*
X054180Y030872D01*
X054680Y030810D02*
X054681Y030918D01*
X054686Y031026D01*
X054694Y031134D01*
X054707Y031242D01*
X054723Y031349D01*
X054744Y031455D01*
X054768Y031561D01*
X054796Y031666D01*
X054827Y031769D01*
X054863Y031872D01*
X054902Y031973D01*
X054944Y032072D01*
X054991Y032170D01*
X055040Y032266D01*
X055093Y032361D01*
X055150Y032453D01*
X055210Y032543D01*
X055273Y032632D01*
X055339Y032717D01*
X055408Y032801D01*
X055481Y032881D01*
X055556Y032959D01*
X055634Y033035D01*
X055714Y033107D01*
X055797Y033177D01*
X055883Y033243D01*
X055971Y033306D01*
X056061Y033366D01*
X056153Y033423D01*
X056247Y033477D01*
X056343Y033527D01*
X056441Y033573D01*
X056541Y033616D01*
X056642Y033656D01*
X056744Y033691D01*
X056847Y033723D01*
X056952Y033751D01*
X057057Y033776D01*
X057164Y033796D01*
X057271Y033813D01*
X057378Y033826D01*
X057486Y033835D01*
X057595Y033840D01*
X057703Y033841D01*
X057811Y033838D01*
X057919Y033831D01*
X058027Y033821D01*
X058134Y033806D01*
X058241Y033788D01*
X058347Y033766D01*
X058452Y033740D01*
X058557Y033710D01*
X058660Y033677D01*
X058761Y033639D01*
X058862Y033598D01*
X058960Y033554D01*
X059058Y033506D01*
X059153Y033455D01*
X059246Y033400D01*
X059338Y033341D01*
X059427Y033280D01*
X059514Y033215D01*
X059598Y033148D01*
X059680Y033077D01*
X059760Y033003D01*
X059836Y032927D01*
X059910Y032847D01*
X059981Y032766D01*
X060049Y032681D01*
X060114Y032595D01*
X060176Y032506D01*
X060234Y032414D01*
X060289Y032321D01*
X060341Y032226D01*
X060389Y032129D01*
X060434Y032030D01*
X060475Y031930D01*
X060513Y031828D01*
X060547Y031726D01*
X060577Y031621D01*
X060603Y031516D01*
X060625Y031410D01*
X060644Y031304D01*
X060659Y031196D01*
X060670Y031089D01*
X060677Y030981D01*
X060680Y030872D01*
M02*
